<?xml version="1.0" standalone="no"?>
<!DOCTYPE svg PUBLIC "-//W3C//DTD SVG 1.1//EN" "http://www.w3.org/Graphics/SVG/1.1/DTD/svg11.dtd" >
<svg xmlns="http://www.w3.org/2000/svg">
<metadata>
This is a custom SVG webfont generated by Font Squirrel.
Copyright   : Copyright 2011 Dalton Maag Ltd Modification of this file requires prior written permission from Dalton Maag Ltd
Designer    : Dalton Maag Ltd
Foundry     : Dalton Maag Ltd
Foundry URL : httpwwwdaltonmaagcom
</metadata>
<defs>
<font id="TerumoBCTRegular" horiz-adv-x="1161" >
<font-face units-per-em="2048" ascent="1638" descent="-410" />
<missing-glyph horiz-adv-x="430" />
<glyph unicode=" "  horiz-adv-x="430" />
<glyph unicode="&#x09;" horiz-adv-x="430" />
<glyph unicode="&#xa0;" horiz-adv-x="430" />
<glyph unicode="!" horiz-adv-x="425" d="M96 100q0 51 34 87t83 36t83 -35.5t34 -87.5q0 -51 -34 -87t-83 -36t-83 36t-34 87zM133 457v909h164v-909h-164z" />
<glyph unicode="&#x22;" horiz-adv-x="686" d="M106 760v606h156v-606h-156zM424 760v606h154v-606h-154z" />
<glyph unicode="#" horiz-adv-x="1273" d="M0 496v139h360v248h-360v137h360v346h148v-346h258v346h145v-346h363v-137h-363v-248h363v-139h-363v-344h-145v344h-258v-344h-148v344h-360zM508 635h258v248h-258v-248z" />
<glyph unicode="$" d="M84 205l131 76q86 -162 293 -168v553q-76 31 -143.5 65.5t-119.5 80.5t-82 105.5t-30 139.5q0 76 30 136t81 102t118.5 66.5t145.5 29.5v270h137v-270q147 -10 242.5 -75t140.5 -151l-129 -65q-41 66 -99.5 104.5t-154.5 48.5v-471q98 -45 173 -87t124 -89t72.5 -105.5 t23.5 -135.5q0 -86 -29.5 -155t-83 -118t-125 -78.5t-155.5 -38.5v-276h-137v276q-68 0 -133.5 17.5t-120.5 47.5t-99 72t-71 93zM297 1067q0 -51 17.5 -88t46 -64.5t66.5 -49t81 -40.5v430q-90 -6 -150.5 -54t-60.5 -134zM645 111q92 8 158.5 70.5t66.5 172.5 q0 92 -57 151.5t-168 112.5v-507z" />
<glyph unicode="%" horiz-adv-x="1591" d="M55 92l1364 1282l101 -98l-1358 -1290zM74 1065q0 63 25.5 120.5t69.5 100.5t103.5 67.5t126.5 24.5q70 0 130.5 -24.5t104.5 -67.5t69.5 -100.5t25.5 -120.5q0 -66 -25.5 -122t-69.5 -99t-104.5 -67.5t-130.5 -24.5q-68 0 -129 24q-57 25 -101 68t-69.5 99t-25.5 122z M211 1067q0 -37 15.5 -70.5t37.5 -60.5q27 -25 60.5 -40t72.5 -15t74 15t60.5 41t41 59.5t15.5 70.5t-15.5 70.5t-41 59.5t-60.5 41t-74 15t-72.5 -15t-58 -41t-40 -59.5t-15.5 -70.5zM879 299q0 63 26.5 120.5t70.5 100.5t102.5 67.5t127.5 24.5q70 0 129.5 -24.5 t103.5 -67.5t70.5 -100.5t26.5 -120.5q0 -66 -26.5 -122t-70.5 -99t-103.5 -67.5t-129.5 -24.5t-129 24q-57 25 -101 68t-70.5 99t-26.5 122zM1018 301q0 -37 14.5 -70.5t38.5 -60.5q25 -25 59.5 -40t73.5 -15t73 15t60.5 41t41 59.5t14.5 70.5t-14.5 71t-41 59.5 t-60.5 40.5t-73 15t-73.5 -15t-59 -40.5t-39 -59.5t-14.5 -71z" />
<glyph unicode="&#x26;" horiz-adv-x="1320" d="M90 373q0 141 80 261t260 200l-49 69q-33 47 -58.5 96.5t-25.5 108.5q0 61 24.5 111.5t67.5 85t100.5 53t118.5 18.5t115.5 -17.5t95.5 -51t65.5 -82.5t24.5 -111q0 -111 -69.5 -191.5t-186.5 -129.5l240 -308q31 59 63.5 119t67.5 114t72 100t80 77l81 -115 q-86 -70 -147 -181.5t-123 -227.5l277 -371h-179l-178 236q-35 -53 -75.5 -99.5t-91 -82.5t-112 -56.5t-139.5 -20.5q-94 0 -167.5 33t-126 88.5t-79 126t-26.5 148.5zM250 371q0 -51 17.5 -97.5t48 -82t75.5 -57t103 -21.5q55 0 99 18.5t83 50t70.5 73.5t62.5 89l-297 385 q-135 -66 -198.5 -156.5t-63.5 -201.5zM457 1118q0 -37 22.5 -75.5t44.5 -73.5l51 -72q80 33 133.5 86t53.5 131q0 66 -45 107t-111 41t-107.5 -41.5t-41.5 -102.5z" />
<glyph unicode="'" horiz-adv-x="364" d="M106 760v606h152v-606h-152z" />
<glyph unicode="(" horiz-adv-x="567" d="M94 698q0 150 33 275t90 225t138 174t175 121l50 -100q-68 -49 -126.5 -115t-100.5 -151t-65.5 -191.5t-23.5 -237.5q0 -262 89 -430t227 -266l-50 -100q-94 49 -175 122.5t-138 174t-90 224t-33 275.5z" />
<glyph unicode=")" horiz-adv-x="567" d="M-12 2q68 49 126 115.5t100 152.5t65.5 192.5t23.5 235.5q0 131 -23.5 237.5t-65.5 191.5t-100.5 150.5t-125.5 115.5l49 100q94 -47 175 -121t138.5 -174t90 -225t32.5 -275q0 -152 -32.5 -275.5t-90 -224t-138.5 -174t-175 -122.5z" />
<glyph unicode="*" horiz-adv-x="913" d="M76 924l272 172l-272 178l65 102l252 -164v273h123v-273l256 162l66 -98l-275 -178l273 -178l-60 -107l-260 168v-287h-123v287l-258 -166z" />
<glyph unicode="+" d="M74 608v144h432v448h149v-448h432v-144h-432v-450h-149v450h-432z" />
<glyph unicode="," horiz-adv-x="438" d="M29 -135q39 10 87 42t64 68q-25 10 -47 42t-22 87q0 51 31.5 90t80.5 39q51 0 85 -39.5t34 -105.5q0 -51 -26.5 -97t-69.5 -85t-95.5 -66.5t-103.5 -42.5z" />
<glyph unicode="-" horiz-adv-x="659" d="M96 461v145h467v-145h-467z" />
<glyph unicode="." horiz-adv-x="425" d="M96 100q0 51 34 87t83 36t83 -35.5t34 -87.5q0 -51 -34 -87t-83 -36t-83 36t-34 87z" />
<glyph unicode="/" horiz-adv-x="1032" d="M0 27l905 1525l127 -67l-901 -1532z" />
<glyph unicode="0" d="M70 676q0 131 29.5 257t93 225t158.5 159.5t229 60.5q133 0 229 -60.5t159.5 -159.5t93.5 -225t30 -257t-31 -257t-93.5 -225.5t-158.5 -161t-229 -61.5t-230 62q-94 61 -157.5 160.5t-93 225.5t-29.5 257zM250 678q0 -102 19.5 -202.5t58.5 -180.5q41 -80 102.5 -129 t149.5 -49q86 0 148.5 49t102 129t59 180t19.5 203q0 102 -18.5 201.5t-59 177.5t-103 126t-148.5 48q-88 0 -149.5 -48t-102.5 -126t-59.5 -177.5t-18.5 -201.5z" />
<glyph unicode="1" d="M170 1081l430 271h150v-1352h-175v1165l-321 -196z" />
<glyph unicode="2" d="M117 1104q74 131 188.5 202.5t278.5 71.5q92 0 165.5 -26.5t127 -74.5t82 -114.5t28.5 -146.5q0 -133 -68.5 -251t-162.5 -233q-84 -104 -175.5 -201.5t-181.5 -191.5h625v-139h-862v96q117 129 224.5 248t199.5 229q51 63 92 117.5t68.5 105t42 98.5t14.5 101 q0 117 -63.5 177.5t-168.5 60.5q-195 0 -319 -205z" />
<glyph unicode="3" d="M82 217l135 80q55 -94 138 -137t169 -43q59 0 113.5 18.5t96.5 52t66.5 81.5t24.5 108q0 63 -25.5 111.5t-67.5 81t-99.5 50t-116.5 21.5v123q53 4 105.5 20.5t93.5 47t64.5 73.5t23.5 101q0 51 -21.5 93t-58.5 70.5t-84 44t-98 15.5q-92 0 -166 -46t-115 -124l-135 80 q61 117 180 178t254 61q82 0 158 -25.5t135 -71.5t95 -112.5t36 -148.5q0 -119 -59.5 -198t-149.5 -113q47 -18 89 -45t75 -66t50.5 -93t17.5 -126q0 -98 -41 -173t-107.5 -127t-153 -79t-176.5 -27q-66 0 -130 14.5t-123.5 45t-108.5 77t-84 107.5z" />
<glyph unicode="4" d="M84 420v145l704 785h111v-793h154v-137h-154v-420h-162v420h-653zM266 557h471v516z" />
<glyph unicode="5" d="M137 184l133 82q88 -145 295 -145q135 0 220 75.5t85 219.5q0 160 -132 244.5t-373 84.5h-156v605h764v-140h-602v-325h16q135 0 254 -24.5t206 -80t137 -145.5t50 -221q0 -109 -36.5 -191t-101.5 -137t-151 -84t-182 -29q-135 0 -249 52.5t-177 158.5z" />
<glyph unicode="6" d="M145 514q0 166 51.5 311.5t146.5 258t229.5 188.5t301.5 102l35 -129q-92 -16 -178 -55t-157.5 -97.5t-126 -131t-85.5 -156.5q57 35 124 55.5t143 20.5q100 0 179 -37t132 -100.5t81 -145.5t28 -174t-30 -174t-87.5 -143.5t-138 -97.5t-183.5 -36q-123 0 -211 46.5 t-143 122t-83 173t-28 199.5zM322 514q0 -66 14 -137.5t48 -131t89 -97t139 -37.5q68 0 118 26.5t84 70.5t49.5 99t15.5 113q0 63 -17.5 121.5t-53.5 102.5t-90 69.5t-124 25.5q-76 0 -143 -22q-63 -23 -115 -60q-14 -71 -14 -143z" />
<glyph unicode="7" d="M82 1210v140h983v-111l-541 -1239h-180l524 1210h-786z" />
<glyph unicode="8" d="M129 371q0 106 51 194t156 140q-84 53 -135 135t-51 174t37.5 159.5t99 113.5t138.5 68.5t155 22.5q80 0 156.5 -22.5t137 -66.5t96.5 -110.5t36 -154.5q0 -98 -48.5 -179t-130.5 -138q100 -47 151.5 -138.5t51.5 -195.5q0 -100 -39 -175t-102.5 -125t-144 -75 t-164.5 -25q-82 0 -163 25t-145.5 75t-103.5 125t-39 173zM295 373q0 -66 24 -115q27 -47 68 -79t92 -48t105 -16q51 0 101 15t90 47t64.5 79t24.5 113q0 63 -24.5 112t-65.5 84t-92 53.5t-104 18.5q-51 0 -101.5 -18.5t-91.5 -52.5t-65.5 -83t-24.5 -110zM317 1014 q0 -59 23 -107q23 -45 60.5 -75.5t83.5 -46t94 -15.5q49 0 96 16.5t83 47t60.5 75.5t24.5 105q0 57 -23.5 100t-60.5 71.5t-83 42t-95 13.5q-47 0 -94.5 -14.5t-84 -42t-60.5 -70.5t-24 -100z" />
<glyph unicode="9" d="M135 926q0 94 31 176t87 143.5t137 97t181 35.5q119 0 207 -46t145.5 -122.5t85 -174t27.5 -199.5q0 -164 -53 -308.5t-151.5 -258t-235.5 -189.5t-305 -103l-35 129q96 20 184 59.5t161 94.5t128 126t88 155q-55 -35 -119.5 -54.5t-142.5 -19.5q-100 0 -178 38 t-132.5 102.5t-82 146.5t-27.5 172zM299 930q0 -66 18.5 -124t53.5 -103.5t90 -72t129 -26.5q68 0 133 23q66 25 123 63q12 70 12 148q0 66 -13.5 136t-46 129.5t-89 97.5t-140.5 38q-68 0 -119 -26.5t-83.5 -70.5t-50 -99.5t-17.5 -112.5z" />
<glyph unicode=":" horiz-adv-x="425" d="M96 100q0 51 34 87t83 36t83 -35.5t34 -87.5q0 -51 -34 -87t-83 -36t-83 36t-34 87zM96 854q0 51 34 87t83 36t83 -36t34 -87q0 -53 -34 -89t-83 -36t-83 36t-34 89z" />
<glyph unicode=";" horiz-adv-x="438" d="M29 -135q39 10 87 42t64 68q-25 10 -47 42t-22 87q0 51 31.5 90t80.5 39q51 0 85 -39.5t34 -105.5q0 -51 -26.5 -97t-69.5 -85t-95.5 -66.5t-103.5 -42.5zM104 854q0 51 34 87t83 36q47 0 81 -36t34 -87q0 -53 -34 -89t-81 -36q-49 0 -83 36t-34 89z" />
<glyph unicode="&#x3c;" d="M117 623v118l882 324l58 -141l-668 -238l694 -256l-59 -147z" />
<glyph unicode="=" d="M74 303v143h1013v-143h-1013zM74 764v141h1013v-141h-1013z" />
<glyph unicode="&#x3e;" d="M117 430l694 256l-668 238l58 141l882 -324v-118l-907 -340z" />
<glyph unicode="?" horiz-adv-x="837" d="M-4 1139q29 43 66.5 86t89 76.5t117 55t147.5 21.5q193 0 291 -95t98 -261q0 -92 -46 -167t-110 -140q-47 -51 -80.5 -87t-54 -66t-29 -55.5t-8.5 -55.5v-74h-160v86q0 96 50.5 165.5t109.5 129.5q37 37 65.5 68.5t49 62.5t32 65.5t11.5 77.5q0 104 -58.5 159.5 t-168.5 55.5q-96 0 -169 -54t-128 -132zM283 100q0 51 32.5 87t81.5 36t83 -35.5t34 -87.5q0 -51 -34 -87t-83 -36t-81.5 36t-32.5 87z" />
<glyph unicode="@" horiz-adv-x="1951" d="M106 502q0 197 73 354.5t195 270t282.5 173t336.5 60.5q186 0 343 -62.5t270.5 -170t176 -253t62.5 -313.5q0 -109 -27.5 -203t-79.5 -163.5t-125 -109.5t-165 -40q-76 0 -135.5 25.5t-93.5 74.5q-43 -39 -105.5 -67.5t-155.5 -28.5q-90 0 -162.5 32t-125 89t-81 137 t-28.5 178q0 106 34 190.5t97.5 144t153.5 91t205 31.5q66 0 140.5 -10t139.5 -27v-594q0 -80 36 -113.5t89 -33.5q47 0 90 24.5t76 73.5t52.5 121t19.5 166q0 147 -49.5 273t-140.5 219.5t-220 146.5t-291 53q-166 0 -300 -56.5t-230 -155.5t-148.5 -234.5t-52.5 -294.5 q0 -170 59.5 -304.5t160 -226.5t233.5 -141t280 -49q139 0 255 34.5t202 82.5l55 -99q-88 -49 -215 -93t-299 -44q-193 0 -355.5 61.5t-280 173t-184.5 266.5t-67 341zM719 492q0 -147 72.5 -233.5t187.5 -86.5q59 0 108.5 20.5t90.5 55.5q-4 12 -4 24v533q-35 8 -70 11 t-64 3q-66 0 -124 -19.5t-102 -59.5t-69.5 -101t-25.5 -147z" />
<glyph unicode="A" horiz-adv-x="1220" d="M0 0l553 1366h104l564 -1366h-187l-170 422h-520l-164 -422h-180zM399 567h410l-209 523z" />
<glyph unicode="B" horiz-adv-x="1155" d="M174 0v1366h410q215 0 324.5 -94t109.5 -254q0 -131 -79 -202t-202 -91q61 -6 124 -26.5t114 -60.5t83 -102.5t32 -154.5q0 -88 -31 -158.5t-86 -120t-132 -76t-167 -26.5h-500zM346 141h318q111 0 177 60.5t66 183.5q0 260 -334 260h-227v-504zM346 786h221 q129 0 199 66t70 172q0 201 -246 201h-244v-439z" />
<glyph unicode="C" horiz-adv-x="1222" d="M104 678q0 190 50.5 326.5t130.5 222.5t182 126t209 40q162 0 289 -76t190 -205l-139 -80q-20 37 -51 75t-73 67.5t-93 49t-109 19.5q-188 0 -294.5 -147.5t-106.5 -419.5q0 -133 31.5 -236.5t88 -174t132 -106.5t164.5 -36q63 0 111 16.5t88 44t71 65.5t57 79l131 -80 q-29 -49 -69.5 -98.5t-96 -88t-129 -63.5t-166.5 -25q-127 0 -235.5 40t-188 125t-127 218.5t-47.5 321.5z" />
<glyph unicode="D" horiz-adv-x="1333" d="M174 0v1366h371q84 0 174 -13.5t168 -47.5q76 -35 140.5 -89.5t111.5 -130t73.5 -171t26.5 -212.5q0 -143 -35 -256.5t-96 -197.5t-145 -139.5t-181 -81.5q-49 -14 -116.5 -20.5t-120.5 -6.5h-371zM346 141h176q47 0 107.5 5.5t109.5 23.5q66 27 122.5 70t100.5 105.5 t69.5 148.5t25.5 200q0 178 -57.5 287t-155.5 170q-63 39 -148.5 56.5t-165.5 17.5h-184v-1084z" />
<glyph unicode="E" horiz-adv-x="1105" d="M174 0v1366h836v-141h-664v-439h475v-141h-477v-504h719v-141h-889z" />
<glyph unicode="F" horiz-adv-x="991" d="M174 0v1366h813v-141h-641v-461h473v-141h-475v-623h-170z" />
<glyph unicode="G" horiz-adv-x="1284" d="M104 678q0 193 49.5 328t129 221t184 126t217.5 40q96 0 170 -18.5t129 -53.5t96 -84t74 -111l-137 -79q-51 92 -127 146t-205 54q-76 0 -147.5 -32.5t-127 -102.5t-88 -178.5t-32.5 -257.5q0 -133 33.5 -237.5t93 -176.5t138.5 -108.5t167 -36.5q96 0 166.5 11t116.5 26 v356h-236v143h408v-602q-31 -12 -79 -26.5t-107.5 -25.5t-129 -18.5t-141.5 -7.5q-127 0 -237.5 40t-194.5 125t-133.5 218.5t-49.5 321.5z" />
<glyph unicode="H" horiz-adv-x="1409" d="M174 0v1366h172v-592h719v592h170v-1366h-170v629h-719v-629h-172z" />
<glyph unicode="I" horiz-adv-x="520" d="M174 0v1366h172v-1366h-172z" />
<glyph unicode="J" horiz-adv-x="514" d="M-84 -137q129 20 196.5 71.5t67.5 149.5v1282h172v-1278q0 -168 -109.5 -255t-295.5 -107z" />
<glyph unicode="K" horiz-adv-x="1208" d="M174 0v1366h172v-600l617 600h204l-553 -537l584 -829h-207l-497 711l-148 -146v-565h-172z" />
<glyph unicode="L" horiz-adv-x="1052" d="M174 0v1366h172v-1225h664v-141h-836z" />
<glyph unicode="M" horiz-adv-x="1597" d="M174 0v1366h203l416 -1055l430 1055h200v-1366h-166v1042l-444 -1065h-35l-436 1063v-1040h-168z" />
<glyph unicode="N" horiz-adv-x="1415" d="M174 0v1366h174l723 -1018v1018h170v-1366h-127l-770 1083v-1083h-170z" />
<glyph unicode="O" horiz-adv-x="1421" d="M104 684q0 133 36 260t111 227.5t188.5 161t273.5 60.5q156 0 269.5 -60.5t188 -161t110.5 -227.5t36 -260t-36 -261t-110.5 -227.5t-188.5 -161t-269 -61.5q-160 0 -275 62q-113 61 -187.5 160.5t-110.5 227.5t-36 261zM287 684q0 -106 25.5 -207.5t76.5 -181.5 q53 -80 133 -128t191 -48q109 0 188.5 48t130.5 128t77 181.5t26 207.5q0 104 -25 205.5t-76 181.5t-132 128t-189 48q-111 0 -192 -48t-133 -128t-76.5 -181.5t-24.5 -205.5z" />
<glyph unicode="P" horiz-adv-x="1169" d="M174 0v1366h447q248 0 367.5 -104.5t119.5 -309.5q0 -199 -126 -301t-368 -102h-268v-549h-172zM346 692h283q131 0 212 61.5t81 202.5t-77 205t-218 64h-281v-533z" />
<glyph unicode="Q" horiz-adv-x="1421" d="M104 684q0 133 36 260t111 227.5t188.5 161t273.5 60.5q156 0 269.5 -60.5t188 -161t110.5 -227.5t36 -260q0 -123 -31 -240.5t-92 -214t-157.5 -163t-227.5 -86.5q23 -59 95.5 -89t209.5 -38l-20 -136q-98 6 -173 21.5t-132.5 45.5t-99.5 77t-75 119q-133 18 -228 84.5 t-157.5 164t-93.5 215t-31 240.5zM287 684q0 -106 25.5 -207.5t76.5 -181.5q53 -80 133 -128t191 -48q109 0 188.5 48t130.5 128t77 181.5t26 207.5q0 104 -25 205.5t-76 181.5t-132 128t-189 48q-111 0 -192 -48t-133 -128t-76.5 -181.5t-24.5 -205.5z" />
<glyph unicode="R" horiz-adv-x="1185" d="M174 0v1366h461q240 0 354.5 -102.5t114.5 -270.5q0 -90 -27.5 -156.5t-76 -112.5t-114 -74.5t-141.5 -41.5l392 -608h-195l-387 598h-209v-598h-172zM346 739h277q299 0 299 254q0 117 -73 174.5t-210 57.5h-293v-486z" />
<glyph unicode="S" horiz-adv-x="1110" d="M63 197l138 96q61 -86 162.5 -129t205.5 -43q57 0 107.5 13t88.5 41t60.5 73t22.5 106q0 57 -28.5 101.5t-76 79t-108 62.5t-123.5 54q-74 31 -144.5 62.5t-128 77t-92 104.5t-34.5 145q0 88 36.5 155t100 111t144.5 65.5t169 21.5q135 0 260 -51.5t203 -161.5l-131 -99 q-57 74 -144 120t-190 46q-127 0 -196.5 -54t-69.5 -144q0 -51 24.5 -87t68.5 -66t106.5 -56.5t140.5 -59.5q72 -31 143.5 -65.5t127 -81.5t90 -110.5t34.5 -151.5q0 -104 -38 -180t-102.5 -125.5t-149.5 -72t-181 -22.5q-74 0 -145.5 15.5t-137 44t-121 71t-92.5 95.5z" />
<glyph unicode="T" horiz-adv-x="1099" d="M18 1225v141h1061v-141h-444v-1225h-170v1225h-447z" />
<glyph unicode="U" horiz-adv-x="1390" d="M166 457v909h172v-879q0 -174 94 -271t262 -97q170 0 264.5 94t94.5 274v879h172v-909q0 -121 -44 -211t-118 -150.5t-171 -91.5t-202 -31q-113 0 -208 31t-165.5 91.5t-110.5 150.5t-40 211z" />
<glyph unicode="V" horiz-adv-x="1193" d="M0 1366h188l416 -1040l406 1040h184l-545 -1366h-100z" />
<glyph unicode="W" horiz-adv-x="1615" d="M0 1366h174l264 -965l324 965h90l326 -965l260 965h178l-363 -1366h-102l-344 1018l-342 -1018h-105z" />
<glyph unicode="X" horiz-adv-x="1110" d="M0 0l444 700l-405 666h209l307 -537l313 537h199l-410 -653l453 -713h-215l-344 586l-352 -586h-199z" />
<glyph unicode="Y" horiz-adv-x="1167" d="M0 1366h197l381 -553l403 553h186l-508 -709v-657h-172v655z" />
<glyph unicode="Z" horiz-adv-x="1150" d="M82 0v152l809 1073h-772v141h928v-176l-787 -1049h819v-141h-997z" />
<glyph unicode="[" horiz-adv-x="477" d="M150 -293v1800h319v-129h-164v-1540h164v-131h-319z" />
<glyph unicode="\" horiz-adv-x="1017" d="M0 1485l139 74l879 -1498l-137 -84z" />
<glyph unicode="]" horiz-adv-x="477" d="M8 -162h164v1540h-164v129h320v-1800h-320v131z" />
<glyph unicode="^" horiz-adv-x="1079" d="M131 651l342 719h125l350 -690l-145 -59l-271 526l-247 -549z" />
<glyph unicode="_" horiz-adv-x="1089" d="M0 -328h1090v-123h-1090v123z" />
<glyph unicode="`" horiz-adv-x="950" d="M242 1368l108 107l359 -285l-76 -76z" />
<glyph unicode="a" horiz-adv-x="1009" d="M82 283q0 104 59.5 171.5t149.5 107.5t199.5 56.5t211.5 16.5v12q0 123 -54 176.5t-159 53.5q-70 0 -129 -30t-100 -79l-117 78q63 80 148.5 117.5t214.5 37.5q172 0 267 -83.5t95 -280.5v-637h-149l-10 84q-53 -51 -123 -79t-154 -28q-68 0 -130 19.5t-111.5 57.5 t-79 95.5t-29.5 133.5zM250 281q0 -47 19.5 -80t48 -54.5t64.5 -31t69 -9.5q76 0 139 30t112 71v303q-70 -2 -149.5 -10t-147 -32t-111.5 -68.5t-44 -118.5z" />
<glyph unicode="b" horiz-adv-x="1126" d="M147 51v1315h166v-420q68 29 129.5 41t120.5 12q98 0 184.5 -33.5t147.5 -98t97 -160t36 -220.5q0 -117 -39 -211t-107.5 -160.5t-161.5 -102.5t-204 -36q-119 0 -212.5 23.5t-156.5 50.5zM313 139q41 -16 88.5 -26.5t90.5 -10.5q86 0 156.5 28t118.5 79t73.5 122.5 t25.5 160.5q0 88 -25.5 158.5t-70.5 119.5t-105.5 74.5t-132.5 25.5q-51 0 -106 -13t-113 -48v-670z" />
<glyph unicode="c" horiz-adv-x="1019" d="M98 485q0 137 41 235.5t107.5 161t150.5 91t168 28.5q86 0 151.5 -24.5t111.5 -61t76 -77.5t42 -74l-123 -74q-45 98 -113.5 141t-144.5 43q-57 0 -111.5 -25.5t-97.5 -74.5t-68.5 -120.5t-25.5 -164.5q0 -92 25.5 -163.5t69.5 -120.5t103.5 -75t127.5 -26q74 0 144.5 41 t115.5 134l115 -70q-59 -119 -164 -175.5t-221 -56.5q-90 0 -177.5 31t-154 94.5t-107.5 158.5t-41 224z" />
<glyph unicode="d" horiz-adv-x="1126" d="M98 498q0 94 32 185t93.5 161.5t153.5 113.5t215 43q78 0 133 -11t94 -25v401h166v-1366h-154l-12 80q-55 -55 -120.5 -79t-143.5 -24q-111 0 -196 40t-142 110t-88 165t-31 206zM262 489q0 -82 19.5 -152.5t59.5 -121.5t99.5 -81t139.5 -30q66 0 128 26t111 85v612 q-12 8 -34.5 16.5t-51 15.5t-58.5 11t-59 4q-90 0 -156.5 -32.5t-110.5 -87t-65.5 -124t-21.5 -141.5z" />
<glyph unicode="e" horiz-adv-x="1091" d="M98 494q0 117 34 210t93.5 159.5t144.5 102t187 35.5q115 0 200 -36.5t140 -103t83 -160t28 -203.5h-746q0 -184 88 -289t256 -105q96 0 163 45.5t108 110.5l110 -70q-55 -92 -145 -152.5t-240 -60.5q-117 0 -209 34t-157.5 98.5t-101.5 161t-36 223.5zM276 623h545 q-2 63 -25.5 111t-60.5 80t-84 47.5t-94 15.5q-102 0 -177 -58.5t-104 -195.5z" />
<glyph unicode="f" horiz-adv-x="630" d="M43 848v129h154v72q0 94 22.5 159.5t62.5 106.5t96 59.5t126 18.5q82 0 138 -15.5t99 -38.5l-49 -120q-37 16 -81 29.5t-99 13.5q-37 0 -64.5 -8.5t-47 -32t-31 -65.5t-11.5 -109v-70h246v-129h-244v-848h-167v848h-150z" />
<glyph unicode="g" horiz-adv-x="1118" d="M86 -117q0 158 150 234q-37 16 -64 44.5t-27 74.5q0 57 47.5 94t114.5 53q-25 12 -58.5 34.5t-62 57.5t-48 81t-19.5 108q0 86 37 149.5t99 105.5t141 62t161 20q63 0 124.5 -11t119.5 -36l151 146l107 -92l-141 -134q39 -41 62.5 -93t23.5 -117q0 -86 -37 -150.5 t-99.5 -108t-144.5 -63.5t-168 -20q-29 0 -71 4t-64 8q-35 -4 -64.5 -21.5t-29.5 -46.5q0 -33 50 -48t183 -17q129 -2 228.5 -16.5t168 -47.5t103.5 -89t35 -142q0 -80 -38 -139.5t-104.5 -99.5t-156.5 -60.5t-189 -20.5q-248 0 -384 71.5t-136 225.5zM233 -102 q0 -47 29 -82t78 -58.5t116.5 -36t149.5 -12.5q150 0 243 51.5t93 137.5q0 43 -17.5 73.5t-61.5 51t-117.5 30.5t-188.5 13q-143 4 -199 12q-55 -27 -90 -69.5t-35 -110.5zM283 664q0 -43 16 -82q18 -39 54 -70t85 -49.5t113 -18.5q51 0 101 11.5t92 37t68 68.5t26 105 q0 51 -23.5 91t-61.5 65.5t-89.5 38.5t-104.5 13q-51 0 -102 -13t-89 -38.5t-61.5 -65.5t-23.5 -93z" />
<glyph unicode="h" horiz-adv-x="1159" d="M147 0v1366h166v-467q63 43 142.5 72.5t179.5 29.5q209 0 296 -100t87 -293v-608h-168v610q0 135 -58.5 199.5t-187.5 64.5q-82 0 -157.5 -35.5t-133.5 -74.5v-764h-166z" />
<glyph unicode="i" horiz-adv-x="464" d="M123 1249q0 47 31.5 82t76.5 35t78 -35t33 -82q0 -49 -33 -82.5t-78 -33.5t-76.5 33.5t-31.5 82.5zM147 0v977h168v-977h-168z" />
<glyph unicode="j" horiz-adv-x="460" d="M-8 -291q39 27 67.5 54.5t46 60.5t25.5 75t8 97v981h168v-981q0 -158 -62.5 -249t-170.5 -150zM115 1249q0 47 31.5 82t76.5 35t78 -35t33 -82q0 -49 -33 -82.5t-78 -33.5t-76.5 33.5t-31.5 82.5z" />
<glyph unicode="k" horiz-adv-x="1026" d="M147 0v1366h166v-760l416 371h211l-350 -315l440 -662h-192l-371 553l-154 -133v-420h-166z" />
<glyph unicode="l" horiz-adv-x="462" d="M147 0v1366h166v-1366h-166z" />
<glyph unicode="m" horiz-adv-x="1779" d="M147 0v977h154l10 -78q51 35 133 68.5t179 33.5q82 0 158.5 -26.5t127.5 -97.5q66 51 158 87.5t201 36.5t180.5 -27.5t113.5 -79.5t59 -129t17 -175v-590h-168v610q0 123 -49 191.5t-180 68.5q-43 0 -86 -11t-81 -27.5t-68.5 -35t-53.5 -34.5q10 -35 16.5 -73t6.5 -99 v-590h-166v610q0 53 -10.5 100.5t-35 83t-65.5 56t-104 20.5q-76 0 -149.5 -35.5t-131.5 -72.5v-762h-166z" />
<glyph unicode="n" horiz-adv-x="1163" d="M147 0v977h154l10 -78q63 45 148.5 73.5t177.5 28.5q211 0 298 -99t87 -294v-608h-166v612q0 123 -58.5 192.5t-189.5 69.5q-82 0 -159.5 -33.5t-135.5 -74.5v-766h-166z" />
<glyph unicode="o" horiz-adv-x="1153" d="M98 494q0 96 30 187t89 162.5t149.5 114.5t208.5 43q119 0 209 -44t149.5 -115.5t89.5 -163.5t30 -189q0 -96 -30 -188t-89.5 -163.5t-149.5 -116t-209 -44.5q-117 0 -206 43q-90 45 -149.5 118t-90.5 166.5t-31 189.5zM262 494q0 -74 19.5 -143.5t58.5 -125.5 q41 -53 100.5 -87t134.5 -34q80 0 139.5 34t99.5 88.5t59.5 124t19.5 141.5t-19.5 141t-59.5 123.5t-99.5 87.5t-139.5 33q-78 0 -137 -33t-98 -87.5t-58.5 -122.5t-19.5 -140z" />
<glyph unicode="p" horiz-adv-x="1126" d="M147 -387v1364h152l12 -72q68 51 141.5 73.5t155.5 22.5q115 0 194 -40.5t130 -110.5t73.5 -161t22.5 -189q0 -119 -39 -215.5t-106.5 -165t-161.5 -105.5t-205 -37q-121 0 -203 33v-397h-166zM313 147q25 -16 70 -29.5t100 -13.5q82 0 152 27t121 76t78.5 121.5 t27.5 165.5q0 68 -15.5 136t-49 122.5t-91 88t-141.5 33.5q-68 0 -132 -28.5t-120 -75.5v-623z" />
<glyph unicode="q" horiz-adv-x="1132" d="M98 489q0 115 40 209.5t110.5 162t170 104t220.5 36.5q82 0 178 -8t168 -18v-1362h-166v418q-49 -25 -112.5 -40.5t-135.5 -15.5q-98 0 -184 36t-150.5 102.5t-101.5 161.5t-37 214zM264 485q0 -84 27.5 -153.5t75 -119.5t109 -78t132.5 -28q61 0 116.5 18.5t94.5 41.5 v694q-31 6 -78 10t-100 4q-70 0 -137.5 -24.5t-119.5 -73.5t-86 -122t-34 -169z" />
<glyph unicode="r" horiz-adv-x="692" d="M147 0v977h152l12 -86q41 41 105.5 75.5t132.5 34.5q47 0 87 -6t60 -12l-30 -145q-53 23 -136 22q-61 0 -118.5 -32.5t-98.5 -67.5v-760h-166z" />
<glyph unicode="s" horiz-adv-x="886" d="M76 166l129 76q37 -66 93 -102t153 -36q211 0 211 144q0 43 -13.5 72.5t-45.5 53t-81 45t-121 46.5q-76 25 -130 52.5t-89 60t-50 73.5t-15 97q0 119 91 186t241 67q125 0 208.5 -39.5t143.5 -113.5l-117 -88q-43 49 -101.5 81.5t-131.5 32.5q-90 0 -134.5 -33.5 t-44.5 -82.5q0 -31 12.5 -54.5t42 -43t79 -39t122.5 -43.5q143 -47 216 -119t73 -191q0 -70 -27.5 -124t-76.5 -91t-116 -56.5t-146 -19.5q-152 0 -238 53.5t-137 135.5z" />
<glyph unicode="t" horiz-adv-x="704" d="M41 848v129h176v266h166v-266h268v-129h-270v-625q0 -72 28.5 -95.5t73.5 -23.5q41 0 78 16.5t68 39.5l63 -107q-49 -35 -97 -55.5t-136 -20.5q-117 0 -179.5 56.5t-62.5 173.5v641h-176z" />
<glyph unicode="u" horiz-adv-x="1157" d="M141 358v619h166v-627q0 -129 62.5 -187.5t185.5 -58.5q80 0 158 32t129 77v764h166v-977h-152l-10 76q-63 -45 -136 -72t-184 -27q-201 0 -293 94t-92 287z" />
<glyph unicode="v" horiz-adv-x="958" d="M0 977h178l305 -797l308 797h167l-385 -977h-188z" />
<glyph unicode="w" horiz-adv-x="1421" d="M0 977h178l234 -735l250 735h96l252 -735l233 735h178l-340 -977h-129l-243 705l-240 -705h-129z" />
<glyph unicode="x" horiz-adv-x="866" d="M0 0l344 498l-330 479h189l231 -350l236 350h176l-328 -475l340 -502h-178l-252 365l-250 -365h-178z" />
<glyph unicode="y" horiz-adv-x="974" d="M0 977h188l304 -752l303 752h180l-526 -1235q-37 -90 -108 -123t-144 -33q-51 0 -105.5 13.5t-85.5 25.5l47 117q25 -8 59.5 -15.5t71.5 -7.5q49 0 78 22.5t57 88.5l84 195z" />
<glyph unicode="z" horiz-adv-x="972" d="M86 0v154l610 694h-585v129h755v-162l-612 -686h627v-129h-795z" />
<glyph unicode="{" horiz-adv-x="512" d="M41 631v108q80 10 130 56.5t50 146.5v305q0 139 69.5 192.5t213.5 57.5l12 -111q-51 -2 -80.5 -13t-44 -31.5t-17.5 -51t-3 -73.5v-275q0 -111 -37 -169t-133 -89q96 -29 133 -87t37 -169v-276q0 -41 3 -71t17.5 -49.5t44 -29.5t80.5 -12l-12 -117q-143 2 -213 56.5 t-70 193.5v305q0 100 -50 146.5t-130 56.5z" />
<glyph unicode="|" horiz-adv-x="456" d="M150 -152v1663h155v-1663h-155z" />
<glyph unicode="}" horiz-adv-x="514" d="M-2 -10q51 2 79.5 12t44 29.5t18.5 49.5t3 71v276q0 111 37 169t133 87q-96 31 -133 89t-37 169v275q0 43 -3 73.5t-18.5 51t-44 31.5t-79.5 13l12 111q143 -4 213 -57.5t70 -192.5v-305q0 -100 50 -146t130 -57v-108q-80 -10 -130 -56.5t-50 -146.5v-305 q0 -139 -69.5 -193.5t-213.5 -56.5z" />
<glyph unicode="~" horiz-adv-x="956" d="M-4 1038q16 137 92 215t211 78q72 0 117 -18.5t88 -46.5q23 -14 43 -29.5t41 -30.5q18 -14 37.5 -24.5t36.5 -10.5q88 0 119.5 47.5t39.5 116.5h140q-4 -80 -32 -137t-69 -95t-90 -56.5t-96 -18.5q-66 0 -110 18.5t-81 45.5q-27 20 -49 37.5t-43 29.5q-18 14 -40.5 23.5 t-47.5 9.5q-90 0 -126 -44t-44 -110h-137z" />
<glyph unicode="&#xa1;" horiz-adv-x="425" d="M96 879q0 51 34 86.5t83 35.5t83 -35.5t34 -86.5q0 -53 -34 -88t-83 -35t-83 35t-34 88zM127 -389v909h166v-909h-166z" />
<glyph unicode="&#xa2;" d="M193 690q0 86 28.5 154.5t76.5 118t113.5 79t141.5 39.5v285h119v-285q84 -2 148.5 -31.5t101.5 -60.5l-66 -108q-43 35 -88 53t-96 18v-532q45 2 89 15.5t77 31.5l55 -119q-41 -25 -102.5 -43t-118.5 -20v-293h-119v297q-170 23 -265 131t-95 270zM358 690 q0 -111 51.5 -173t143.5 -91v524q-86 -10 -140.5 -76.5t-54.5 -183.5z" />
<glyph unicode="&#xa3;" d="M98 514v139h150v308q0 205 104.5 311t298.5 106q160 0 252 -67.5t141 -169.5l-163 -76q-27 63 -80 113.5t-152 50.5q-119 0 -178 -64.5t-59 -212.5v-299h475v-139h-475v-375h632v-139h-796v514h-150z" />
<glyph unicode="&#xa4;" horiz-adv-x="1435" d="M0 158l338 327q-45 59 -69.5 128t-24.5 145q0 72 22.5 138.5t63.5 123.5l-330 315l123 103l315 -310q63 43 136 68t155 25q158 0 277 -84l309 301l121 -103l-316 -303q45 -59 69.5 -127.5t24.5 -146.5q0 -162 -102 -285l324 -315l-109 -99l-328 314q-59 -37 -126.5 -57.5 t-143.5 -20.5q-80 0 -150.5 22.5t-132.5 63.5l-333 -322zM397 756q0 -66 27 -123q25 -57 71 -100.5t105 -68t129 -24.5t129.5 24.5t104.5 67.5t71.5 100.5t26.5 123.5t-26.5 124t-71.5 101t-104.5 67.5t-129.5 24.5t-129 -24.5t-105 -67.5t-72 -101t-26 -124z" />
<glyph unicode="&#xa5;" d="M35 1350h194l349 -553l366 553h186l-309 -463h144v-139h-236l-72 -107v-57h299v-140h-299v-444h-172v444h-307v140h307v55l-67 109h-240v139h152z" />
<glyph unicode="&#xa6;" horiz-adv-x="413" d="M129 -152v564h156v-564h-156zM129 946v565h156v-565h-156z" />
<glyph unicode="&#xa7;" horiz-adv-x="905" d="M113 -176l80 108q43 -47 101 -76.5t128 -29.5q90 0 141 39t51 106q0 35 -12 66t-43 62.5t-81 68.5t-126 84q-111 70 -175 145.5t-64 186.5t76.5 174t191.5 88q-41 33 -77 63.5t-62.5 65.5t-42 77t-15.5 97q0 113 87 178.5t227 65.5q109 0 177 -35t111 -82l-90 -92 q-37 41 -90 65.5t-114 24.5q-160 0 -160 -125q0 -61 58.5 -120.5t168.5 -149.5q74 -59 122 -104.5t75.5 -86.5t40 -82t12.5 -92q0 -49 -20.5 -91t-53.5 -74t-75 -55.5t-85 -35.5q43 -31 79 -59.5t61.5 -59t40 -67.5t14.5 -84q0 -68 -28.5 -120t-78 -88t-110.5 -55.5 t-123 -19.5q-111 0 -186.5 32t-130.5 87zM264 586q0 -78 58 -135q59 -55 161 -127q82 23 129 70.5t47 113.5q0 35 -9 64.5t-31.5 60.5t-60.5 64.5t-91 76.5q-90 -14 -146.5 -58t-56.5 -130z" />
<glyph unicode="&#xa8;" horiz-adv-x="950" d="M182 1323q0 47 32 80t77 33q43 0 73.5 -33t30.5 -80t-30.5 -81t-73.5 -34q-45 0 -77 34t-32 81zM555 1323q0 47 30.5 80t73.5 33q45 0 77 -33t32 -80t-31.5 -81t-77.5 -34q-43 0 -73.5 34t-30.5 81z" />
<glyph unicode="&#xa9;" horiz-adv-x="1669" d="M96 608q0 143 46 279.5t140.5 244t231.5 173t322 65.5q184 0 321 -65.5t229.5 -173t139.5 -243.5t47 -280q0 -145 -47 -282.5t-139.5 -245t-230.5 -173t-322 -65.5t-322 66q-137 66 -230.5 173t-139.5 244.5t-46 282.5zM229 608q0 -121 39 -237.5t115 -208.5 q78 -90 190.5 -145.5t262.5 -55.5t262 55.5t189 146.5t114 207.5t37 237.5t-37 237t-114 207t-189.5 146t-261.5 55q-150 0 -263.5 -55t-189.5 -146t-115 -207t-39 -237zM442 604q0 123 32 212t85 147.5t127 86t158 27.5q119 0 192.5 -52t114.5 -122l-102 -61q-31 57 -80 91 t-131 34q-115 0 -187.5 -91.5t-72.5 -271.5q0 -174 76.5 -263t189.5 -89q70 0 121 35t92 92l98 -66q-49 -78 -130 -125t-183 -47q-84 0 -158 27t-126 83t-84 143t-32 210z" />
<glyph unicode="&#xaa;" horiz-adv-x="735" d="M76 977q0 78 41 129t105.5 81t143 42t156.5 12q0 86 -38 122t-105 36q-104 0 -164 -80l-100 59q43 61 110.5 95t163.5 34q129 0 199.5 -62.5t70.5 -209.5v-471h-127l-4 49q-29 -23 -81 -45.5t-109 -22.5q-49 0 -97 14.5t-84 44.5t-58.5 73t-22.5 100zM213 975 q0 -61 45 -89t92 -28q51 0 96.5 19.5t75.5 44.5v211q-57 0 -112.5 -8.5t-99.5 -27t-70.5 -48t-26.5 -74.5z" />
<glyph unicode="&#xab;" horiz-adv-x="1034" d="M33 512l416 418l112 -80l-311 -328l342 -321l-105 -90zM416 512l430 418l106 -76l-309 -332l340 -323l-102 -88z" />
<glyph unicode="&#xac;" d="M59 907v144h1016v-752h-155v608h-861z" />
<glyph unicode="&#xad;" horiz-adv-x="659" d="M96 461v145h467v-145h-467z" />
<glyph unicode="&#xae;" horiz-adv-x="1669" d="M96 608q0 143 46 279.5t140.5 244t231.5 173t322 65.5q184 0 321 -65.5t229.5 -173t139.5 -243.5t47 -280q0 -145 -47 -282.5t-139.5 -245t-230.5 -173t-322 -65.5t-322 66q-137 66 -230.5 173t-139.5 244.5t-46 282.5zM229 608q0 -121 39 -237.5t115 -208.5 q78 -90 190.5 -145.5t262.5 -55.5t262 55.5t189 146.5t114 207.5t37 237.5t-37 237t-114 207t-189.5 146t-261.5 55q-150 0 -263.5 -55t-189.5 -146t-115 -207t-39 -237zM535 164v903h309q160 0 236.5 -68.5t76.5 -181.5q0 -117 -64.5 -177t-160.5 -79l256 -397h-150 l-252 387h-122v-387h-129zM664 662h172q186 0 186 155q0 141 -176 141h-182v-296z" />
<glyph unicode="&#xaf;" horiz-adv-x="950" d="M160 1208v127h631v-127h-631z" />
<glyph unicode="&#xb0;" horiz-adv-x="780" d="M86 1071q0 57 23.5 111.5t65.5 94.5t98.5 64.5t117.5 24.5q63 0 118.5 -23.5t96.5 -63.5t64.5 -94.5t23.5 -113.5q0 -61 -23.5 -114.5t-64.5 -93.5t-96 -63.5t-119 -23.5q-61 0 -119 23q-55 25 -97 64.5t-65.5 93t-23.5 114.5zM215 1071q0 -37 12 -67q16 -31 41 -54.5 t55.5 -37t67.5 -13.5q78 0 127 52.5t49 119.5q0 68 -49 120t-127 52q-76 0 -126 -50t-50 -122z" />
<glyph unicode="&#xb1;" d="M68 0v137h1026v-137h-1026zM78 768v143h432v449h149v-449h433v-143h-433v-451h-149v451h-432z" />
<glyph unicode="&#xb2;" horiz-adv-x="645" d="M57 1221q49 78 109.5 117.5t159.5 39.5q102 0 164.5 -52t62.5 -138q0 -70 -38 -129.5t-85 -112.5q-37 -39 -74 -75.5t-71 -75.5h284v-107h-481v74q66 66 121 122t100 107q53 61 80 101.5t27 85.5t-28 67.5t-69 22.5q-43 0 -78.5 -21.5t-74.5 -81.5z" />
<glyph unicode="&#xb3;" horiz-adv-x="645" d="M53 819l107 58q33 -53 72.5 -73t78.5 -20q57 0 96 29t39 76q0 49 -43 75.5t-116 30.5v92q68 4 107.5 30t39.5 67q0 39 -32.5 63.5t-82.5 24.5q-90 0 -137 -88l-104 57q43 72 110.5 104.5t141.5 32.5q45 0 88 -12t75.5 -36.5t54 -59.5t21.5 -80q0 -47 -22.5 -84t-61.5 -62 q43 -23 69 -58.5t26 -94.5q0 -53 -24 -92t-60.5 -65.5t-86 -40t-96.5 -13.5q-72 0 -141.5 31.5t-118.5 107.5z" />
<glyph unicode="&#xb4;" horiz-adv-x="950" d="M242 1190l358 285l109 -107l-390 -254z" />
<glyph unicode="&#xb5;" horiz-adv-x="1234" d="M172 -387v1364h168v-623q0 -135 64.5 -192.5t187.5 -57.5q98 0 164.5 38t95.5 91q14 29 16 68t2 74v602h168v-735q0 -70 14.5 -103t65.5 -33q33 0 58 9l26 -115q-25 -10 -57.5 -16.5t-54.5 -6.5q-72 0 -121 26t-74 95q-66 -63 -136.5 -92t-180.5 -29q-78 0 -141.5 24 t-104.5 71v-459h-160z" />
<glyph unicode="&#xb6;" horiz-adv-x="1087" d="M76 965q0 82 32.5 155.5t89 128t132.5 86t164 31.5h153v-1663h-153v862q-88 0 -164 32t-132.5 85t-89 126t-32.5 157zM791 -297v1663h155v-1663h-155z" />
<glyph unicode="&#xb7;" horiz-adv-x="618" d="M193 756q0 51 33.5 87t82.5 36t83 -36t34 -87t-34 -87t-83 -36t-82.5 36t-33.5 87z" />
<glyph unicode="&#xb8;" horiz-adv-x="950" d="M0 -356l111 266h176l-156 -266h-131z" />
<glyph unicode="&#xb9;" horiz-adv-x="645" d="M90 1245l227 125h109v-680h-131v537l-148 -80z" />
<glyph unicode="&#xba;" horiz-adv-x="862" d="M76 1139q0 70 21.5 138.5t65.5 121.5t110.5 86t156.5 33t156.5 -33t110.5 -87.5t66.5 -123t22.5 -139.5q0 -72 -22.5 -139.5t-66.5 -122t-110.5 -87t-156.5 -32.5q-88 0 -156 32q-66 35 -109.5 89.5t-66 123t-22.5 140.5zM213 1139q0 -53 14.5 -102.5t38.5 -88.5 q29 -39 70 -61.5t94 -22.5t94 22.5t69 61.5t42 87t14 102q0 51 -14 100t-42 87t-69 60.5t-94 22.5t-94 -22.5t-67.5 -60.5t-41 -86t-14.5 -99z" />
<glyph unicode="&#xbb;" horiz-adv-x="1034" d="M51 199l340 323l-309 332l106 76l430 -418l-468 -401zM442 201l342 321l-311 328l113 80l415 -418l-454 -401z" />
<glyph unicode="&#xbc;" horiz-adv-x="1591" d="M55 57l1372 1315l94 -94l-1384 -1311zM90 1245l227 125h109v-680h-131v537l-148 -80zM940 184v97l346 397h105v-404h88v-90h-88v-178h-131v178h-320zM1067 274h193v228z" />
<glyph unicode="&#xbd;" horiz-adv-x="1591" d="M27 57l1372 1315l94 -94l-1384 -1311zM74 1245l227 125h109v-680h-131v537l-148 -80zM934 537q49 78 109.5 117.5t159.5 39.5q102 0 164.5 -52t62.5 -138q0 -70 -38 -129.5t-85 -112.5q-37 -39 -74 -75.5t-71 -75.5h284v-107h-481v74q66 66 121 122t100 107 q53 61 80 101.5t27 85.5t-28 67.5t-69 22.5q-43 0 -78.5 -21.5t-74.5 -81.5z" />
<glyph unicode="&#xbe;" horiz-adv-x="1591" d="M80 57l1372 1315l94 -94l-1384 -1311zM53 819l107 58q33 -53 72.5 -73t78.5 -20q57 0 96 29t39 76q0 49 -43 75.5t-116 30.5v92q68 4 107.5 30t39.5 67q0 39 -32.5 63.5t-82.5 24.5q-90 0 -137 -88l-104 57q43 72 110.5 104.5t141.5 32.5q45 0 88 -12t75.5 -36.5 t54 -59.5t21.5 -80q0 -47 -22.5 -84t-61.5 -62q43 -23 69 -58.5t26 -94.5q0 -53 -24 -92t-60.5 -65.5t-86 -40t-96.5 -13.5q-72 0 -141.5 31.5t-118.5 107.5zM952 184v97l346 397h105v-404h88v-90h-88v-178h-131v178h-320zM1079 274h193v228z" />
<glyph unicode="&#xbf;" horiz-adv-x="794" d="M12 -43q0 92 46 167t110 140q47 51 81 87t53.5 65.5t28.5 55.5t9 56v74h158v-88q0 -94 -50.5 -163.5t-107.5 -129.5q-74 -74 -116 -132t-42 -144q0 -100 58.5 -156.5t167.5 -56.5q98 0 170.5 54t126.5 132l116 -80q-29 -43 -65.5 -85t-89 -75.5t-118 -55t-149.5 -21.5 q-188 0 -287.5 95t-99.5 261zM303 879q0 51 34 86.5t83 35.5t82 -35.5t33 -86.5q0 -53 -33 -88t-82 -35t-83 35t-34 88z" />
<glyph unicode="&#xc0;" horiz-adv-x="1220" d="M0 0l553 1366h104l564 -1366h-187l-170 422h-520l-164 -422h-180zM399 567h410l-209 523zM312 1708l108 107l359 -285l-76 -76z" />
<glyph unicode="&#xc1;" horiz-adv-x="1220" d="M0 0l553 1366h104l564 -1366h-187l-170 422h-520l-164 -422h-180zM399 567h410l-209 523zM398 1530l358 285l109 -107l-390 -254z" />
<glyph unicode="&#xc2;" horiz-adv-x="1220" d="M0 0l553 1366h104l564 -1366h-187l-170 422h-520l-164 -422h-180zM399 567h410l-209 523zM285 1516l270 294h102l273 -294l-97 -62l-227 229l-225 -229z" />
<glyph unicode="&#xc3;" horiz-adv-x="1220" d="M0 0l553 1366h104l564 -1366h-187l-170 422h-520l-164 -422h-180zM399 567h410l-209 523zM225 1552q31 92 90.5 147.5t135.5 55.5q47 0 92 -23.5t88 -48.5q18 -12 49 -28.5t59 -16.5q33 0 66 27t61 94l107 -49q-35 -94 -93.5 -147.5t-133.5 -53.5q-39 0 -78 17.5 t-76 40.5q-25 12 -62.5 35.5t-72.5 23.5q-37 0 -65.5 -27.5t-59.5 -93.5z" />
<glyph unicode="&#xc4;" horiz-adv-x="1220" d="M0 0l553 1366h104l564 -1366h-187l-170 422h-520l-164 -422h-180zM399 567h410l-209 523zM313 1661q0 47 32 80t77 33q43 0 73.5 -33t30.5 -80t-30.5 -81t-73.5 -34q-45 0 -77 34t-32 81zM686 1661q0 47 30.5 80t73.5 33q45 0 77 -33t32 -80t-31.5 -81t-77.5 -34 q-43 0 -73.5 34t-30.5 81z" />
<glyph unicode="&#xc5;" horiz-adv-x="1220" d="M0 0l551 1362q-18 4 -31 10q-37 18 -61.5 47t-37.5 65t-13 75t13 75.5t37.5 65.5t62.5 46t87 17t87 -17t63.5 -46t39 -66t13.5 -75q0 -37 -13.5 -74t-39 -65.5t-64.5 -47.5q-14 -6 -35 -12l562 -1360h-187l-170 422h-520l-164 -422h-180zM399 567h410l-209 523zM500 1559 q0 -45 26 -84q29 -37 82 -37t82 37.5t29 83.5q0 47 -28.5 84.5t-82.5 37.5q-53 0 -80.5 -37.5t-27.5 -84.5z" />
<glyph unicode="&#xc6;" horiz-adv-x="1816" d="M0 0l809 1366h905v-141h-624v-439h432v-141h-432v-504h673v-141h-845v422h-478l-250 -422h-190zM526 567h392v662z" />
<glyph unicode="&#xc7;" horiz-adv-x="1222" d="M104 678q0 190 50.5 326.5t130.5 222.5t182 126t209 40q162 0 289 -76t190 -205l-139 -80q-20 37 -51 75t-73 67.5t-93 49t-109 19.5q-188 0 -294.5 -147.5t-106.5 -419.5q0 -133 31.5 -236.5t88 -174t132 -106.5t164.5 -36q63 0 111 16.5t88 44t71 65.5t57 79l131 -80 q-29 -49 -69.5 -98.5t-96 -88t-129 -63.5t-166.5 -25q-127 0 -235.5 40t-188 125t-127 218.5t-47.5 321.5zM500 -356l111 266h176l-156 -266h-131z" />
<glyph unicode="&#xc8;" horiz-adv-x="1105" d="M174 0v1366h836v-141h-664v-439h475v-141h-477v-504h719v-141h-889zM342 1708l108 107l359 -285l-76 -76z" />
<glyph unicode="&#xc9;" horiz-adv-x="1105" d="M174 0v1366h836v-141h-664v-439h475v-141h-477v-504h719v-141h-889zM404 1530l358 285l109 -107l-390 -254z" />
<glyph unicode="&#xca;" horiz-adv-x="1105" d="M174 0v1366h836v-141h-664v-439h475v-141h-477v-504h719v-141h-889zM289 1516l270 294h102l273 -294l-97 -62l-227 229l-225 -229z" />
<glyph unicode="&#xcb;" horiz-adv-x="1105" d="M174 0v1366h836v-141h-664v-439h475v-141h-477v-504h719v-141h-889zM307 1663q0 47 32 80t77 33q43 0 73.5 -33t30.5 -80t-30.5 -81t-73.5 -34q-45 0 -77 34t-32 81zM680 1663q0 47 30.5 80t73.5 33q45 0 77 -33t32 -80t-31.5 -81t-77.5 -34q-43 0 -73.5 34t-30.5 81z " />
<glyph unicode="&#xcc;" horiz-adv-x="520" d="M174 0v1366h172v-1366h-172zM-20 1708l108 107l359 -285l-76 -76z" />
<glyph unicode="&#xcd;" horiz-adv-x="520" d="M174 0v1366h172v-1366h-172zM84 1530l358 285l109 -107l-390 -254z" />
<glyph unicode="&#xce;" horiz-adv-x="520" d="M174 0v1366h172v-1366h-172zM-45 1516l270 294h102l273 -294l-97 -62l-227 229l-225 -229z" />
<glyph unicode="&#xcf;" horiz-adv-x="520" d="M174 0v1366h172v-1366h-172zM-23 1663q0 47 32 80t77 33q43 0 73.5 -33t30.5 -80t-30.5 -81t-73.5 -34q-45 0 -77 34t-32 81zM350 1663q0 47 30.5 80t73.5 33q45 0 77 -33t32 -80t-31.5 -81t-77.5 -34q-43 0 -73.5 34t-30.5 81z" />
<glyph unicode="&#xd0;" horiz-adv-x="1339" d="M-2 647v127h176v592h373q82 0 173 -13.5t167 -47.5q154 -70 253 -219.5t99 -383.5q0 -143 -35 -256.5t-95 -197.5t-144 -139.5t-181 -81.5q-49 -14 -116.5 -20.5t-120.5 -6.5h-373v647h-176zM346 141h176q49 0 108.5 5.5t108.5 23.5q66 27 123.5 69t100.5 105.5 t69.5 149.5t26.5 200q0 178 -58.5 287t-156.5 170q-63 39 -147.5 56.5t-164.5 17.5h-186v-451h344v-127h-344v-506z" />
<glyph unicode="&#xd1;" horiz-adv-x="1415" d="M174 0v1366h174l723 -1018v1018h170v-1366h-127l-770 1083v-1083h-170zM360 1552q31 92 90.5 147.5t135.5 55.5q47 0 92 -23.5t88 -48.5q18 -12 49 -28.5t59 -16.5q33 0 66 27t61 94l107 -49q-35 -94 -93.5 -147.5t-133.5 -53.5q-39 0 -78 17.5t-76 40.5 q-25 12 -62.5 35.5t-72.5 23.5q-37 0 -65.5 -27.5t-59.5 -93.5z" />
<glyph unicode="&#xd2;" horiz-adv-x="1421" d="M104 684q0 133 36 260t111 227.5t188.5 161t273.5 60.5q156 0 269.5 -60.5t188 -161t110.5 -227.5t36 -260t-36 -261t-110.5 -227.5t-188.5 -161t-269 -61.5q-160 0 -275 62q-113 61 -187.5 160.5t-110.5 227.5t-36 261zM287 684q0 -106 25.5 -207.5t76.5 -181.5 q53 -80 133 -128t191 -48q109 0 188.5 48t130.5 128t77 181.5t26 207.5q0 104 -25 205.5t-76 181.5t-132 128t-189 48q-111 0 -192 -48t-133 -128t-76.5 -181.5t-24.5 -205.5zM475 1708l108 107l359 -285l-76 -76z" />
<glyph unicode="&#xd3;" horiz-adv-x="1421" d="M104 684q0 133 36 260t111 227.5t188.5 161t273.5 60.5q156 0 269.5 -60.5t188 -161t110.5 -227.5t36 -260t-36 -261t-110.5 -227.5t-188.5 -161t-269 -61.5q-160 0 -275 62q-113 61 -187.5 160.5t-110.5 227.5t-36 261zM287 684q0 -106 25.5 -207.5t76.5 -181.5 q53 -80 133 -128t191 -48q109 0 188.5 48t130.5 128t77 181.5t26 207.5q0 104 -25 205.5t-76 181.5t-132 128t-189 48q-111 0 -192 -48t-133 -128t-76.5 -181.5t-24.5 -205.5zM496 1530l358 285l109 -107l-390 -254z" />
<glyph unicode="&#xd4;" horiz-adv-x="1421" d="M104 684q0 133 36 260t111 227.5t188.5 161t273.5 60.5q156 0 269.5 -60.5t188 -161t110.5 -227.5t36 -260t-36 -261t-110.5 -227.5t-188.5 -161t-269 -61.5q-160 0 -275 62q-113 61 -187.5 160.5t-110.5 227.5t-36 261zM287 684q0 -106 25.5 -207.5t76.5 -181.5 q53 -80 133 -128t191 -48q109 0 188.5 48t130.5 128t77 181.5t26 207.5q0 104 -25 205.5t-76 181.5t-132 128t-189 48q-111 0 -192 -48t-133 -128t-76.5 -181.5t-24.5 -205.5zM390 1516l270 294h102l273 -294l-97 -62l-227 229l-225 -229z" />
<glyph unicode="&#xd5;" horiz-adv-x="1421" d="M104 684q0 133 36 260t111 227.5t188.5 161t273.5 60.5q156 0 269.5 -60.5t188 -161t110.5 -227.5t36 -260t-36 -261t-110.5 -227.5t-188.5 -161t-269 -61.5q-160 0 -275 62q-113 61 -187.5 160.5t-110.5 227.5t-36 261zM287 684q0 -106 25.5 -207.5t76.5 -181.5 q53 -80 133 -128t191 -48q109 0 188.5 48t130.5 128t77 181.5t26 207.5q0 104 -25 205.5t-76 181.5t-132 128t-189 48q-111 0 -192 -48t-133 -128t-76.5 -181.5t-24.5 -205.5zM327 1552q31 92 90.5 147.5t135.5 55.5q47 0 92 -23.5t88 -48.5q18 -12 49 -28.5t59 -16.5 q33 0 66 27t61 94l107 -49q-35 -94 -93.5 -147.5t-133.5 -53.5q-39 0 -78 17.5t-76 40.5q-25 12 -62.5 35.5t-72.5 23.5q-37 0 -65.5 -27.5t-59.5 -93.5z" />
<glyph unicode="&#xd6;" horiz-adv-x="1421" d="M104 684q0 133 36 260t111 227.5t188.5 161t273.5 60.5q156 0 269.5 -60.5t188 -161t110.5 -227.5t36 -260t-36 -261t-110.5 -227.5t-188.5 -161t-269 -61.5q-160 0 -275 62q-113 61 -187.5 160.5t-110.5 227.5t-36 261zM287 684q0 -106 25.5 -207.5t76.5 -181.5 q53 -80 133 -128t191 -48q109 0 188.5 48t130.5 128t77 181.5t26 207.5q0 104 -25 205.5t-76 181.5t-132 128t-189 48q-111 0 -192 -48t-133 -128t-76.5 -181.5t-24.5 -205.5zM422 1663q0 47 32 80t77 33q43 0 73.5 -33t30.5 -80t-30.5 -81t-73.5 -34q-45 0 -77 34t-32 81z M795 1663q0 47 30.5 80t73.5 33q45 0 77 -33t32 -80t-31.5 -81t-77.5 -34q-43 0 -73.5 34t-30.5 81z" />
<glyph unicode="&#xd7;" d="M178 408l291 276l-291 274l111 111l291 -278l294 278l109 -111l-291 -274l291 -276l-106 -113l-297 283l-293 -283z" />
<glyph unicode="&#xd8;" horiz-adv-x="1421" d="M104 684q0 133 36 260t111 227.5t188.5 161t273.5 60.5q129 0 229 -43t176 -115l133 160l107 -86l-158 -187q55 -98 86 -209.5t31 -228.5q0 -133 -36 -261t-110.5 -227.5t-188.5 -161t-269 -61.5q-113 0 -205 33t-164 88l-117 -139l-104 90l129 154q-72 100 -110 227 t-38 258zM287 684q0 -92 21.5 -180t60.5 -166l641 770q-51 63 -126 101t-171 38q-111 0 -192 -48t-133 -128t-76.5 -181.5t-24.5 -205.5zM449 221q51 -47 117.5 -74.5t146.5 -27.5q109 0 188.5 48t130.5 128t77 181.5t26 207.5q0 74 -14.5 148.5t-41.5 142.5z" />
<glyph unicode="&#xd9;" horiz-adv-x="1390" d="M166 457v909h172v-879q0 -174 94 -271t262 -97q170 0 264.5 94t94.5 274v879h172v-909q0 -121 -44 -211t-118 -150.5t-171 -91.5t-202 -31q-113 0 -208 31t-165.5 91.5t-110.5 150.5t-40 211zM414 1708l108 107l359 -285l-76 -76z" />
<glyph unicode="&#xda;" horiz-adv-x="1390" d="M166 457v909h172v-879q0 -174 94 -271t262 -97q170 0 264.5 94t94.5 274v879h172v-909q0 -121 -44 -211t-118 -150.5t-171 -91.5t-202 -31q-113 0 -208 31t-165.5 91.5t-110.5 150.5t-40 211zM500 1530l358 285l109 -107l-390 -254z" />
<glyph unicode="&#xdb;" horiz-adv-x="1390" d="M166 457v909h172v-879q0 -174 94 -271t262 -97q170 0 264.5 94t94.5 274v879h172v-909q0 -121 -44 -211t-118 -150.5t-171 -91.5t-202 -31q-113 0 -208 31t-165.5 91.5t-110.5 150.5t-40 211zM390 1516l270 294h102l273 -294l-97 -62l-227 229l-225 -229z" />
<glyph unicode="&#xdc;" horiz-adv-x="1390" d="M166 457v909h172v-879q0 -174 94 -271t262 -97q170 0 264.5 94t94.5 274v879h172v-909q0 -121 -44 -211t-118 -150.5t-171 -91.5t-202 -31q-113 0 -208 31t-165.5 91.5t-110.5 150.5t-40 211zM413 1663q0 47 32 80t77 33q43 0 73.5 -33t30.5 -80t-30.5 -81t-73.5 -34 q-45 0 -77 34t-32 81zM786 1663q0 47 30.5 80t73.5 33q45 0 77 -33t32 -80t-31.5 -81t-77.5 -34q-43 0 -73.5 34t-30.5 81z" />
<glyph unicode="&#xdd;" horiz-adv-x="1167" d="M0 1366h197l381 -553l403 553h186l-508 -709v-657h-172v655zM392 1530l358 285l109 -107l-390 -254z" />
<glyph unicode="&#xde;" horiz-adv-x="1148" d="M174 0v1366h172v-242h258q487 0 488 -411q0 -199 -127 -302.5t-365 -103.5h-254v-307h-172zM346 451h264q131 0 213 62t82 202q0 141 -77.5 205.5t-219.5 64.5h-262v-534z" />
<glyph unicode="&#xdf;" horiz-adv-x="1134" d="M43 848v129h147q6 205 107.5 310.5t290.5 105.5q174 0 275.5 -100.5t101.5 -274.5v-150h-164q-92 0 -135 -31.5t-43 -82.5q0 -29 10 -51.5t33.5 -43t63.5 -40t99 -44.5q137 -55 202 -127.5t65 -179.5q0 -68 -26 -122t-71 -92t-105 -57.5t-130 -19.5q-72 0 -123 12.5 t-90 37t-69.5 59.5t-57.5 80l135 67q35 -66 82 -97.5t123 -31.5q82 0 129 37t47 107q0 35 -11 64.5t-37 56t-71 52t-112 52.5q-109 43 -175.5 106.5t-66.5 174.5q0 123 91 181t253 62q0 137 -63.5 204t-161.5 67q-100 0 -164 -66.5t-64 -224.5v-977h-168v848h-147z" />
<glyph unicode="&#xe0;" horiz-adv-x="1009" d="M82 283q0 104 59.5 171.5t149.5 107.5t199.5 56.5t211.5 16.5v12q0 123 -54 176.5t-159 53.5q-70 0 -129 -30t-100 -79l-117 78q63 80 148.5 117.5t214.5 37.5q172 0 267 -83.5t95 -280.5v-637h-149l-10 84q-53 -51 -123 -79t-154 -28q-68 0 -130 19.5t-111.5 57.5 t-79 95.5t-29.5 133.5zM250 281q0 -47 19.5 -80t48 -54.5t64.5 -31t69 -9.5q76 0 139 30t112 71v303q-70 -2 -149.5 -10t-147 -32t-111.5 -68.5t-44 -118.5zM219 1368l108 107l359 -285l-76 -76z" />
<glyph unicode="&#xe1;" horiz-adv-x="1009" d="M82 283q0 104 59.5 171.5t149.5 107.5t199.5 56.5t211.5 16.5v12q0 123 -54 176.5t-159 53.5q-70 0 -129 -30t-100 -79l-117 78q63 80 148.5 117.5t214.5 37.5q172 0 267 -83.5t95 -280.5v-637h-149l-10 84q-53 -51 -123 -79t-154 -28q-68 0 -130 19.5t-111.5 57.5 t-79 95.5t-29.5 133.5zM250 281q0 -47 19.5 -80t48 -54.5t64.5 -31t69 -9.5q76 0 139 30t112 71v303q-70 -2 -149.5 -10t-147 -32t-111.5 -68.5t-44 -118.5zM320 1190l358 285l109 -107l-390 -254z" />
<glyph unicode="&#xe2;" horiz-adv-x="1009" d="M82 283q0 104 59.5 171.5t149.5 107.5t199.5 56.5t211.5 16.5v12q0 123 -54 176.5t-159 53.5q-70 0 -129 -30t-100 -79l-117 78q63 80 148.5 117.5t214.5 37.5q172 0 267 -83.5t95 -280.5v-637h-149l-10 84q-53 -51 -123 -79t-154 -28q-68 0 -130 19.5t-111.5 57.5 t-79 95.5t-29.5 133.5zM250 281q0 -47 19.5 -80t48 -54.5t64.5 -31t69 -9.5q76 0 139 30t112 71v303q-70 -2 -149.5 -10t-147 -32t-111.5 -68.5t-44 -118.5zM183 1176l270 294h102l273 -294l-97 -62l-227 229l-225 -229z" />
<glyph unicode="&#xe3;" horiz-adv-x="1009" d="M82 283q0 104 59.5 171.5t149.5 107.5t199.5 56.5t211.5 16.5v12q0 123 -54 176.5t-159 53.5q-70 0 -129 -30t-100 -79l-117 78q63 80 148.5 117.5t214.5 37.5q172 0 267 -83.5t95 -280.5v-637h-149l-10 84q-53 -51 -123 -79t-154 -28q-68 0 -130 19.5t-111.5 57.5 t-79 95.5t-29.5 133.5zM250 281q0 -47 19.5 -80t48 -54.5t64.5 -31t69 -9.5q76 0 139 30t112 71v303q-70 -2 -149.5 -10t-147 -32t-111.5 -68.5t-44 -118.5zM137 1212q31 92 90.5 147.5t135.5 55.5q47 0 92 -23.5t88 -48.5q18 -12 49 -28.5t59 -16.5q33 0 66 27t61 94 l107 -49q-35 -94 -93.5 -147.5t-133.5 -53.5q-39 0 -78 17.5t-76 40.5q-25 12 -62.5 35.5t-72.5 23.5q-37 0 -65.5 -27.5t-59.5 -93.5z" />
<glyph unicode="&#xe4;" horiz-adv-x="1009" d="M82 283q0 104 59.5 171.5t149.5 107.5t199.5 56.5t211.5 16.5v12q0 123 -54 176.5t-159 53.5q-70 0 -129 -30t-100 -79l-117 78q63 80 148.5 117.5t214.5 37.5q172 0 267 -83.5t95 -280.5v-637h-149l-10 84q-53 -51 -123 -79t-154 -28q-68 0 -130 19.5t-111.5 57.5 t-79 95.5t-29.5 133.5zM250 281q0 -47 19.5 -80t48 -54.5t64.5 -31t69 -9.5q76 0 139 30t112 71v303q-70 -2 -149.5 -10t-147 -32t-111.5 -68.5t-44 -118.5zM215 1323q0 47 32 80t77 33q43 0 73.5 -33t30.5 -80t-30.5 -81t-73.5 -34q-45 0 -77 34t-32 81zM588 1323 q0 47 30.5 80t73.5 33q45 0 77 -33t32 -80t-31.5 -81t-77.5 -34q-43 0 -73.5 34t-30.5 81z" />
<glyph unicode="&#xe5;" horiz-adv-x="1009" d="M82 283q0 104 59.5 171.5t149.5 107.5t199.5 56.5t211.5 16.5v12q0 123 -54 176.5t-159 53.5q-70 0 -129 -30t-100 -79l-117 78q63 80 148.5 117.5t214.5 37.5q172 0 267 -83.5t95 -280.5v-637h-149l-10 84q-53 -51 -123 -79t-154 -28q-68 0 -130 19.5t-111.5 57.5 t-79 95.5t-29.5 133.5zM250 281q0 -47 19.5 -80t48 -54.5t64.5 -31t69 -9.5q76 0 139 30t112 71v303q-70 -2 -149.5 -10t-147 -32t-111.5 -68.5t-44 -118.5zM307 1296q0 39 13.5 76t38 65.5t62.5 46t87 17.5t87 -17.5t63.5 -46t39 -65.5t13.5 -76q0 -37 -13.5 -73.5 t-39 -65.5t-63.5 -46t-87 -17t-88 16q-37 18 -61.5 47t-38 64.5t-13.5 74.5zM398 1296q0 -45 28 -84q29 -37 82 -36q53 0 82 37.5t29 82.5q0 47 -29 85t-82 38t-81.5 -38t-28.5 -85z" />
<glyph unicode="&#xe6;" horiz-adv-x="1644" d="M82 283q0 104 59.5 171.5t149.5 107.5t199.5 56.5t211.5 16.5v12q0 123 -54 176.5t-159 53.5q-70 0 -129 -30t-100 -79l-119 76q63 78 149.5 117.5t215.5 39.5q115 0 186.5 -36.5t116.5 -110.5q51 70 129 108.5t195 38.5q113 0 194.5 -36.5t132.5 -103t76 -160t25 -203.5 h-697q0 -193 73 -293.5t222 -100.5q96 0 158.5 38t112.5 116l108 -65q-57 -98 -152.5 -157t-230.5 -59q-78 0 -137.5 16.5t-102.5 42t-71.5 56.5t-44.5 60q-20 -31 -50 -62t-73 -56.5t-99.5 -41t-127.5 -15.5q-74 0 -140.5 20.5t-118 59.5t-80 95.5t-28.5 130.5zM250 281 q0 -86 52 -130.5t149 -44.5q123 0 187 51.5t64 137.5v215q-70 -2 -149.5 -10t-147 -32t-111.5 -68.5t-44 -118.5zM866 623h508q-6 129 -73.5 191.5t-167.5 62.5q-104 0 -176.5 -58.5t-90.5 -195.5z" />
<glyph unicode="&#xe7;" horiz-adv-x="1019" d="M98 485q0 137 41 235.5t107.5 161t150.5 91t168 28.5q86 0 151.5 -24.5t111.5 -61t76 -77.5t42 -74l-123 -74q-45 98 -113.5 141t-144.5 43q-57 0 -111.5 -25.5t-97.5 -74.5t-68.5 -120.5t-25.5 -164.5q0 -92 25.5 -163.5t69.5 -120.5t103.5 -75t127.5 -26q74 0 144.5 41 t115.5 134l115 -70q-59 -119 -164 -175.5t-221 -56.5q-90 0 -177.5 31t-154 94.5t-107.5 158.5t-41 224zM373 -356l111 266h176l-156 -266h-131z" />
<glyph unicode="&#xe8;" horiz-adv-x="1091" d="M98 494q0 117 34 210t93.5 159.5t144.5 102t187 35.5q115 0 200 -36.5t140 -103t83 -160t28 -203.5h-746q0 -184 88 -289t256 -105q96 0 163 45.5t108 110.5l110 -70q-55 -92 -145 -152.5t-240 -60.5q-117 0 -209 34t-157.5 98.5t-101.5 161t-36 223.5zM276 623h545 q-2 63 -25.5 111t-60.5 80t-84 47.5t-94 15.5q-102 0 -177 -58.5t-104 -195.5zM299 1368l108 107l359 -285l-76 -76z" />
<glyph unicode="&#xe9;" horiz-adv-x="1091" d="M98 494q0 117 34 210t93.5 159.5t144.5 102t187 35.5q115 0 200 -36.5t140 -103t83 -160t28 -203.5h-746q0 -184 88 -289t256 -105q96 0 163 45.5t108 110.5l110 -70q-55 -92 -145 -152.5t-240 -60.5q-117 0 -209 34t-157.5 98.5t-101.5 161t-36 223.5zM276 623h545 q-2 63 -25.5 111t-60.5 80t-84 47.5t-94 15.5q-102 0 -177 -58.5t-104 -195.5zM344 1190l358 285l109 -107l-390 -254z" />
<glyph unicode="&#xea;" horiz-adv-x="1091" d="M98 494q0 117 34 210t93.5 159.5t144.5 102t187 35.5q115 0 200 -36.5t140 -103t83 -160t28 -203.5h-746q0 -184 88 -289t256 -105q96 0 163 45.5t108 110.5l110 -70q-55 -92 -145 -152.5t-240 -60.5q-117 0 -209 34t-157.5 98.5t-101.5 161t-36 223.5zM276 623h545 q-2 63 -25.5 111t-60.5 80t-84 47.5t-94 15.5q-102 0 -177 -58.5t-104 -195.5zM246 1176l270 294h102l273 -294l-97 -62l-227 229l-225 -229z" />
<glyph unicode="&#xeb;" horiz-adv-x="1091" d="M98 494q0 117 34 210t93.5 159.5t144.5 102t187 35.5q115 0 200 -36.5t140 -103t83 -160t28 -203.5h-746q0 -184 88 -289t256 -105q96 0 163 45.5t108 110.5l110 -70q-55 -92 -145 -152.5t-240 -60.5q-117 0 -209 34t-157.5 98.5t-101.5 161t-36 223.5zM276 623h545 q-2 63 -25.5 111t-60.5 80t-84 47.5t-94 15.5q-102 0 -177 -58.5t-104 -195.5zM272 1323q0 47 32 80t77 33q43 0 73.5 -33t30.5 -80t-30.5 -81t-73.5 -34q-45 0 -77 34t-32 81zM645 1323q0 47 30.5 80t73.5 33q45 0 77 -33t32 -80t-31.5 -81t-77.5 -34q-43 0 -73.5 34 t-30.5 81z" />
<glyph unicode="&#xec;" horiz-adv-x="462" d="M147 0v977h166v-977h-166zM-102 1368l108 107l359 -285l-76 -76z" />
<glyph unicode="&#xed;" horiz-adv-x="462" d="M147 0v977h166v-977h-166zM113 1190l358 285l109 -107l-390 -254z" />
<glyph unicode="&#xee;" horiz-adv-x="462" d="M147 0v977h166v-977h-166zM-86 1176l270 294h102l273 -294l-97 -62l-227 229l-225 -229z" />
<glyph unicode="&#xef;" horiz-adv-x="462" d="M147 0v977h166v-977h-166zM-58 1323q0 47 32 80t77 33q43 0 73.5 -33t30.5 -80t-30.5 -81t-73.5 -34q-45 0 -77 34t-32 81zM315 1323q0 47 30.5 80t73.5 33q45 0 77 -33t32 -80t-31.5 -81t-77.5 -34q-43 0 -73.5 34t-30.5 81z" />
<glyph unicode="&#xf0;" horiz-adv-x="1155" d="M98 494q0 119 36 213t98.5 159.5t150.5 100t195 34.5q84 0 139 -17t92 -34q-27 57 -64.5 109.5t-87.5 87.5l-65 -84l-94 59l63 84q-39 20 -97 40t-112 30l33 117q74 -8 143.5 -31t112.5 -49l66 88l98 -62l-70 -88q66 -49 124.5 -114.5t101.5 -151.5t69.5 -194.5 t26.5 -243.5q0 -150 -39 -257.5t-103.5 -177t-150.5 -102.5t-184 -33q-100 0 -188.5 35t-153 100.5t-102.5 162t-38 219.5zM264 494q0 -92 23.5 -165t66.5 -123t100.5 -76t125.5 -26q66 0 123 25t99 78t66.5 136t24.5 202q0 78 -16 147q-12 72 -27 113q-51 27 -118.5 49.5 t-147.5 22.5q-143 0 -231.5 -99.5t-88.5 -283.5z" />
<glyph unicode="&#xf1;" horiz-adv-x="1163" d="M147 0v977h154l10 -78q63 45 148.5 73.5t177.5 28.5q211 0 298 -99t87 -294v-608h-166v612q0 123 -58.5 192.5t-189.5 69.5q-82 0 -159.5 -33.5t-135.5 -74.5v-766h-166zM225 1212q31 92 90.5 147.5t135.5 55.5q47 0 92 -23.5t88 -48.5q18 -12 49 -28.5t59 -16.5 q33 0 66 27t61 94l107 -49q-35 -94 -93.5 -147.5t-133.5 -53.5q-39 0 -78 17.5t-76 40.5q-25 12 -62.5 35.5t-72.5 23.5q-37 0 -65.5 -27.5t-59.5 -93.5z" />
<glyph unicode="&#xf2;" horiz-adv-x="1153" d="M98 494q0 96 30 187t89 162.5t149.5 114.5t208.5 43q119 0 209 -44t149.5 -115.5t89.5 -163.5t30 -189q0 -96 -30 -188t-89.5 -163.5t-149.5 -116t-209 -44.5q-117 0 -206 43q-90 45 -149.5 118t-90.5 166.5t-31 189.5zM262 494q0 -74 19.5 -143.5t58.5 -125.5 q41 -53 100.5 -87t134.5 -34q80 0 139.5 34t99.5 88.5t59.5 124t19.5 141.5t-19.5 141t-59.5 123.5t-99.5 87.5t-139.5 33q-78 0 -137 -33t-98 -87.5t-58.5 -122.5t-19.5 -140zM295 1368l108 107l359 -285l-76 -76z" />
<glyph unicode="&#xf3;" horiz-adv-x="1153" d="M98 494q0 96 30 187t89 162.5t149.5 114.5t208.5 43q119 0 209 -44t149.5 -115.5t89.5 -163.5t30 -189q0 -96 -30 -188t-89.5 -163.5t-149.5 -116t-209 -44.5q-117 0 -206 43q-90 45 -149.5 118t-90.5 166.5t-31 189.5zM262 494q0 -74 19.5 -143.5t58.5 -125.5 q41 -53 100.5 -87t134.5 -34q80 0 139.5 34t99.5 88.5t59.5 124t19.5 141.5t-19.5 141t-59.5 123.5t-99.5 87.5t-139.5 33q-78 0 -137 -33t-98 -87.5t-58.5 -122.5t-19.5 -140zM359 1190l358 285l109 -107l-390 -254z" />
<glyph unicode="&#xf4;" horiz-adv-x="1153" d="M98 494q0 96 30 187t89 162.5t149.5 114.5t208.5 43q119 0 209 -44t149.5 -115.5t89.5 -163.5t30 -189q0 -96 -30 -188t-89.5 -163.5t-149.5 -116t-209 -44.5q-117 0 -206 43q-90 45 -149.5 118t-90.5 166.5t-31 189.5zM262 494q0 -74 19.5 -143.5t58.5 -125.5 q41 -53 100.5 -87t134.5 -34q80 0 139.5 34t99.5 88.5t59.5 124t19.5 141.5t-19.5 141t-59.5 123.5t-99.5 87.5t-139.5 33q-78 0 -137 -33t-98 -87.5t-58.5 -122.5t-19.5 -140zM248 1176l270 294h102l273 -294l-97 -62l-227 229l-225 -229z" />
<glyph unicode="&#xf5;" horiz-adv-x="1153" d="M98 494q0 96 30 187t89 162.5t149.5 114.5t208.5 43q119 0 209 -44t149.5 -115.5t89.5 -163.5t30 -189q0 -96 -30 -188t-89.5 -163.5t-149.5 -116t-209 -44.5q-117 0 -206 43q-90 45 -149.5 118t-90.5 166.5t-31 189.5zM262 494q0 -74 19.5 -143.5t58.5 -125.5 q41 -53 100.5 -87t134.5 -34q80 0 139.5 34t99.5 88.5t59.5 124t19.5 141.5t-19.5 141t-59.5 123.5t-99.5 87.5t-139.5 33q-78 0 -137 -33t-98 -87.5t-58.5 -122.5t-19.5 -140zM194 1212q31 92 90.5 147.5t135.5 55.5q47 0 92 -23.5t88 -48.5q18 -12 49 -28.5t59 -16.5 q33 0 66 27t61 94l107 -49q-35 -94 -93.5 -147.5t-133.5 -53.5q-39 0 -78 17.5t-76 40.5q-25 12 -62.5 35.5t-72.5 23.5q-37 0 -65.5 -27.5t-59.5 -93.5z" />
<glyph unicode="&#xf6;" horiz-adv-x="1153" d="M98 494q0 96 30 187t89 162.5t149.5 114.5t208.5 43q119 0 209 -44t149.5 -115.5t89.5 -163.5t30 -189q0 -96 -30 -188t-89.5 -163.5t-149.5 -116t-209 -44.5q-117 0 -206 43q-90 45 -149.5 118t-90.5 166.5t-31 189.5zM262 494q0 -74 19.5 -143.5t58.5 -125.5 q41 -53 100.5 -87t134.5 -34q80 0 139.5 34t99.5 88.5t59.5 124t19.5 141.5t-19.5 141t-59.5 123.5t-99.5 87.5t-139.5 33q-78 0 -137 -33t-98 -87.5t-58.5 -122.5t-19.5 -140zM293 1323q0 47 32 80t77 33q43 0 73.5 -33t30.5 -80t-30.5 -81t-73.5 -34q-45 0 -77 34t-32 81z M666 1323q0 47 30.5 80t73.5 33q45 0 77 -33t32 -80t-31.5 -81t-77.5 -34q-43 0 -73.5 34t-30.5 81z" />
<glyph unicode="&#xf7;" d="M74 608v144h1013v-144h-1013zM463 315q0 53 32.5 89t82.5 36q51 0 83.5 -35.5t32.5 -89.5q0 -51 -32.5 -86.5t-83.5 -35.5q-49 0 -82 35.5t-33 86.5zM463 1061q0 53 32.5 89t82.5 36q51 0 83.5 -36t32.5 -89q0 -51 -32.5 -87t-83.5 -36q-49 0 -82 36t-33 87z" />
<glyph unicode="&#xf8;" horiz-adv-x="1153" d="M98 494q0 96 30 187t89 162.5t149.5 114.5t208.5 43q55 0 107.5 -11t99.5 -32l103 164l104 -59l-104 -170q82 -74 125 -180.5t43 -223.5q0 -96 -30 -188t-89.5 -163.5t-149.5 -116t-209 -44.5q-61 0 -117.5 13.5t-101.5 36.5l-102 -166l-107 65l109 176 q-76 74 -117 177.5t-41 214.5zM262 494q0 -70 20.5 -137.5t55.5 -120.5l375 608q-29 14 -65 23.5t-73 9.5q-78 0 -137 -33t-98 -87.5t-58.5 -122.5t-19.5 -140zM428 143q31 -16 67.5 -27.5t79.5 -11.5q80 0 139.5 34t99.5 88.5t59.5 124t19.5 141.5q0 74 -22.5 145.5 t-63.5 124.5z" />
<glyph unicode="&#xf9;" horiz-adv-x="1157" d="M141 358v619h166v-627q0 -129 62.5 -187.5t185.5 -58.5q80 0 158 32t129 77v764h166v-977h-152l-10 76q-63 -45 -136 -72t-184 -27q-201 0 -293 94t-92 287zM293 1368l108 107l359 -285l-76 -76z" />
<glyph unicode="&#xfa;" horiz-adv-x="1157" d="M141 358v619h166v-627q0 -129 62.5 -187.5t185.5 -58.5q80 0 158 32t129 77v764h166v-977h-152l-10 76q-63 -45 -136 -72t-184 -27q-201 0 -293 94t-92 287zM387 1190l358 285l109 -107l-390 -254z" />
<glyph unicode="&#xfb;" horiz-adv-x="1157" d="M141 358v619h166v-627q0 -129 62.5 -187.5t185.5 -58.5q80 0 158 32t129 77v764h166v-977h-152l-10 76q-63 -45 -136 -72t-184 -27q-201 0 -293 94t-92 287zM267 1176l270 294h102l273 -294l-97 -62l-227 229l-225 -229z" />
<glyph unicode="&#xfc;" horiz-adv-x="1157" d="M141 358v619h166v-627q0 -129 62.5 -187.5t185.5 -58.5q80 0 158 32t129 77v764h166v-977h-152l-10 76q-63 -45 -136 -72t-184 -27q-201 0 -293 94t-92 287zM293 1323q0 47 32 80t77 33q43 0 73.5 -33t30.5 -80t-30.5 -81t-73.5 -34q-45 0 -77 34t-32 81zM666 1323 q0 47 30.5 80t73.5 33q45 0 77 -33t32 -80t-31.5 -81t-77.5 -34q-43 0 -73.5 34t-30.5 81z" />
<glyph unicode="&#xfd;" horiz-adv-x="974" d="M0 977h188l304 -752l303 752h180l-526 -1235q-37 -90 -108 -123t-144 -33q-51 0 -105.5 13.5t-85.5 25.5l47 117q25 -8 59.5 -15.5t71.5 -7.5q49 0 78 22.5t57 88.5l84 195zM299 1190l358 285l109 -107l-390 -254z" />
<glyph unicode="&#xfe;" horiz-adv-x="1128" d="M147 -387v1753h164v-459q59 43 138 68.5t161 25.5q115 0 195 -40.5t130 -110.5t72.5 -161t22.5 -189q0 -119 -39 -215.5t-106.5 -165t-161.5 -105.5t-205 -37q-125 0 -203 33v-397h-168zM315 147q25 -16 70 -29.5t100 -13.5q82 0 152 27t121 76t78.5 121.5t27.5 165.5 q0 68 -15 136t-49 122.5t-91.5 88t-141.5 33.5q-68 0 -133 -28.5t-119 -75.5v-623z" />
<glyph unicode="&#xff;" horiz-adv-x="974" d="M0 977h188l304 -752l303 752h180l-526 -1235q-37 -90 -108 -123t-144 -33q-51 0 -105.5 13.5t-85.5 25.5l47 117q25 -8 59.5 -15.5t71.5 -7.5q49 0 78 22.5t57 88.5l84 195zM215 1323q0 47 32 80t77 33q43 0 73.5 -33t30.5 -80t-30.5 -81t-73.5 -34q-45 0 -77 34t-32 81z M588 1323q0 47 30.5 80t73.5 33q45 0 77 -33t32 -80t-31.5 -81t-77.5 -34q-43 0 -73.5 34t-30.5 81z" />
<glyph unicode="&#x110;" horiz-adv-x="1339" d="M-2 647v127h176v592h373q82 0 173 -13.5t167 -47.5q154 -70 253 -219.5t99 -383.5q0 -143 -35 -256.5t-95 -197.5t-144 -139.5t-181 -81.5q-49 -14 -116.5 -20.5t-120.5 -6.5h-373v647h-176zM346 141h176q49 0 108.5 5.5t108.5 23.5q66 27 123.5 69t100.5 105.5 t69.5 149.5t26.5 200q0 178 -58.5 287t-156.5 170q-63 39 -147.5 56.5t-164.5 17.5h-186v-451h344v-127h-344v-506z" />
<glyph unicode="&#x131;" horiz-adv-x="462" d="M147 0v977h166v-977h-166z" />
<glyph unicode="&#x152;" horiz-adv-x="1882" d="M104 702q0 319 201 491.5t565 172.5h908v-141h-623v-439h434v-141h-434v-504h672v-141h-957q-182 0 -324.5 48t-239.5 139.5t-149.5 221t-52.5 293.5zM287 694q0 -272 156.5 -412.5t433.5 -140.5h104v1084h-113q-276 0 -428.5 -133.5t-152.5 -397.5z" />
<glyph unicode="&#x153;" horiz-adv-x="1783" d="M98 494q0 96 26 187t81 162.5t142 114.5t208 43q74 0 130 -15t100 -40.5t77 -60.5t56 -74q49 78 133 134t215 56q113 0 195.5 -38.5t135 -106.5t79 -160t26.5 -198h-707q0 -88 19.5 -161t58.5 -124t99.5 -80t144.5 -29q92 0 150.5 41t95.5 107l116 -59q-55 -98 -150 -157 t-218 -59q-150 0 -244 54.5t-147 140.5q-55 -86 -145.5 -140.5t-221.5 -54.5q-119 0 -205 44.5t-140 117t-82 166t-28 189.5zM262 494q0 -74 16.5 -143.5t51.5 -125.5q33 -53 89 -87t134 -34q80 0 134 34t90 88.5t52.5 124t16.5 141.5t-16.5 141t-52.5 123.5t-90 87.5 t-134 33t-135.5 -33t-89 -87.5t-50 -122.5t-16.5 -140zM995 623h518q-6 129 -76.5 191.5t-170.5 62.5q-98 0 -175.5 -65.5t-95.5 -188.5z" />
<glyph unicode="&#x178;" horiz-adv-x="1167" d="M0 1366h197l381 -553l403 553h186l-508 -709v-657h-172v655zM299 1663q0 47 32 80t77 33q43 0 73.5 -33t30.5 -80t-30.5 -81t-73.5 -34q-45 0 -77 34t-32 81zM672 1663q0 47 30.5 80t73.5 33q45 0 77 -33t32 -80t-31.5 -81t-77.5 -34q-43 0 -73.5 34t-30.5 81z" />
<glyph unicode="&#x2c6;" horiz-adv-x="950" d="M154 1176l270 294h102l273 -294l-97 -62l-227 229l-225 -229z" />
<glyph unicode="&#x2da;" horiz-adv-x="950" d="M274 1296q0 39 13.5 76t38 65.5t62.5 46t87 17.5t87 -17.5t63.5 -46t39 -65.5t13.5 -76q0 -37 -13.5 -73.5t-39 -65.5t-63.5 -46t-87 -17t-88 16q-37 18 -61.5 47t-38 64.5t-13.5 74.5zM365 1296q0 -45 28 -84q29 -37 82 -36q53 0 82 37.5t29 82.5q0 47 -29 85t-82 38 t-81.5 -38t-28.5 -85z" />
<glyph unicode="&#x2dc;" horiz-adv-x="950" d="M102 1212q31 92 90.5 147.5t135.5 55.5q47 0 92 -23.5t88 -48.5q18 -12 49 -28.5t59 -16.5q33 0 66 27t61 94l107 -49q-35 -94 -93.5 -147.5t-133.5 -53.5q-39 0 -78 17.5t-76 40.5q-25 12 -62.5 35.5t-72.5 23.5q-37 0 -65.5 -27.5t-59.5 -93.5z" />
<glyph unicode="&#x2000;" horiz-adv-x="907" />
<glyph unicode="&#x2001;" horiz-adv-x="1814" />
<glyph unicode="&#x2002;" horiz-adv-x="907" />
<glyph unicode="&#x2003;" horiz-adv-x="1814" />
<glyph unicode="&#x2004;" horiz-adv-x="604" />
<glyph unicode="&#x2005;" horiz-adv-x="452" />
<glyph unicode="&#x2006;" horiz-adv-x="301" />
<glyph unicode="&#x2007;" horiz-adv-x="301" />
<glyph unicode="&#x2008;" horiz-adv-x="225" />
<glyph unicode="&#x2009;" horiz-adv-x="362" />
<glyph unicode="&#x200a;" horiz-adv-x="100" />
<glyph unicode="&#x2010;" horiz-adv-x="659" d="M96 461v145h467v-145h-467z" />
<glyph unicode="&#x2011;" horiz-adv-x="659" d="M96 461v145h467v-145h-467z" />
<glyph unicode="&#x2012;" horiz-adv-x="659" d="M96 461v145h467v-145h-467z" />
<glyph unicode="&#x2013;" horiz-adv-x="1189" d="M0 463v147h1190v-147h-1190z" />
<glyph unicode="&#x2014;" horiz-adv-x="2377" d="M0 463v147h2378v-147h-2378z" />
<glyph unicode="&#x2018;" horiz-adv-x="413" d="M90 1241q0 59 30 98t89 39q55 0 84 -39t29 -92q0 -55 -25 -87t-45 -42q20 -35 66.5 -64.5t84.5 -43.5l-24 -66q-51 18 -102.5 47t-93.5 66t-67.5 83t-25.5 101z" />
<glyph unicode="&#x2019;" horiz-adv-x="413" d="M8 1010q39 14 85 43.5t69 64.5q-23 10 -47.5 42t-24.5 87q0 53 28.5 92t86.5 39q57 0 87 -39t30 -98q0 -55 -26 -101t-68 -83t-92 -65.5t-101 -47.5z" />
<glyph unicode="&#x201a;" horiz-adv-x="413" d="M8 -78q39 14 85 45t69 66q-23 10 -47.5 41.5t-24.5 87.5q0 53 28.5 91t86.5 38q57 0 87 -39t30 -98q0 -53 -26 -99.5t-68 -84.5t-92 -66.5t-101 -46.5z" />
<glyph unicode="&#x201c;" horiz-adv-x="815" d="M90 1241q0 59 30 98t89 39q55 0 84 -39t29 -92q0 -55 -25 -87t-45 -42q20 -35 66.5 -64.5t84.5 -43.5l-24 -66q-51 18 -102.5 47t-93.5 66t-67.5 83t-25.5 101zM492 1241q0 59 31.5 98t88.5 39t86 -39t29 -92q0 -55 -25.5 -87t-46.5 -42q23 -35 68 -64.5t84 -43.5 l-27 -66q-51 18 -101 47t-92 66t-68.5 83t-26.5 101z" />
<glyph unicode="&#x201d;" horiz-adv-x="815" d="M8 1010q39 14 85 43.5t69 64.5q-23 10 -47.5 42t-24.5 87q0 53 28.5 92t86.5 39q57 0 87 -39t30 -98q0 -55 -26 -101t-68 -83t-92 -65.5t-101 -47.5zM412 1010q39 14 85 43.5t66 64.5q-18 10 -44.5 42t-26.5 87q0 53 29.5 92t84.5 39q57 0 88 -39t31 -98 q0 -55 -25.5 -101t-66.5 -83t-92.5 -65.5t-102.5 -47.5z" />
<glyph unicode="&#x201e;" horiz-adv-x="815" d="M8 -78q39 14 85 45t69 66q-23 10 -47.5 41.5t-24.5 87.5q0 53 28.5 91t86.5 38q57 0 87 -39t30 -98q0 -53 -26 -99.5t-68 -84.5t-92 -66.5t-101 -46.5zM412 -78q39 14 85 45t66 66q-18 10 -44.5 41.5t-26.5 87.5q0 53 29.5 91t84.5 38q57 0 88 -39t31 -98 q0 -53 -25.5 -99.5t-66.5 -84.5t-92.5 -66.5t-102.5 -46.5z" />
<glyph unicode="&#x2022;" horiz-adv-x="1046" d="M106 793q0 82 33 154.5t89.5 125.5t132 85t163.5 32q86 0 162 -32t132 -85t89 -126t33 -154q0 -82 -33 -154t-89 -126t-132 -85t-162 -31t-164 31q-74 31 -130 84t-90 125t-34 156z" />
<glyph unicode="&#x2026;" horiz-adv-x="1193" d="M82 100q0 51 32.5 87t84.5 36q49 0 81.5 -35.5t32.5 -87.5q0 -51 -32.5 -87t-81.5 -36q-51 0 -84 36t-33 87zM481 100q0 51 34 87t83 36q47 0 81 -35.5t34 -87.5q0 -51 -34 -87t-81 -36q-49 0 -83 36t-34 87zM879 100q0 51 33.5 87t82.5 36q47 0 82 -35.5t35 -87.5 q0 -51 -35 -87t-82 -36q-49 0 -82.5 36t-33.5 87z" />
<glyph unicode="&#x202f;" horiz-adv-x="362" />
<glyph unicode="&#x2039;" horiz-adv-x="643" d="M33 512l416 418l112 -80l-311 -328l342 -321l-105 -90z" />
<glyph unicode="&#x203a;" horiz-adv-x="643" d="M51 201l342 321l-311 328l111 80l417 -418l-454 -401z" />
<glyph unicode="&#x2044;" horiz-adv-x="477" d="M-514 57l1372 1315l94 -94l-1384 -1311z" />
<glyph unicode="&#x205f;" horiz-adv-x="452" />
<glyph unicode="&#x2074;" horiz-adv-x="645" d="M55 868v97l346 397h105v-404h88v-90h-88v-178h-131v178h-320zM182 958h193v228z" />
<glyph unicode="&#x20ac;" d="M27 440v140h172q-2 23 -2 43v43v49q0 25 2 47h-172v141h184q72 475 461 475q86 0 150.5 -17.5t112.5 -50t82 -79.5t62 -107l-157 -63q-31 70 -88.5 120t-161.5 50q-129 0 -193.5 -81t-87.5 -247h350v-141h-362q0 -23 -1 -46.5t-1 -49.5q0 -23 1 -43.5t1 -42.5h362v-140 h-348q31 -172 104.5 -244.5t192.5 -72.5q109 0 163 48t99 134l131 -80q-27 -53 -61.5 -99t-80.5 -79t-107.5 -51.5t-145.5 -18.5q-195 0 -317.5 110t-159.5 353h-184z" />
<glyph unicode="&#x2122;" horiz-adv-x="1333" d="M41 1264v102h463v-102h-172v-486h-119v486h-172zM602 778v588h121l192 -410l181 410h118v-588h-120v365l-160 -369h-35l-176 371v-367h-121z" />
<glyph unicode="&#xe000;" horiz-adv-x="975" d="M0 975h975v-975h-975v975z" />
<glyph unicode="&#xfb01;" horiz-adv-x="1052" d="M43 848v129h154v72q0 88 28.5 153.5t76.5 107.5t112.5 62.5t136.5 20.5q119 0 188.5 -32t116.5 -71l-80 -104q-37 29 -92 55.5t-131 26.5q-90 0 -142.5 -49.5t-52.5 -171.5v-70h246v-129h-244v-848h-167v848h-150zM739 0v977h166v-977h-166z" />
<glyph unicode="&#xfb02;" horiz-adv-x="1116" d="M43 848v129h150v35q0 100 34.5 172.5t97 119t147.5 68t185 21.5q98 0 182.5 -18.5t127.5 -35.5v-1339h-166v1235q-27 10 -69 16t-87 6q-57 0 -109.5 -11t-91 -38.5t-62.5 -77t-24 -124.5v-29h246v-129h-244v-848h-167v848h-150z" />
<glyph unicode="&#xfb03;" horiz-adv-x="1658" d="M43 848v129h154v72q0 94 22.5 159.5t62.5 106.5t96 59.5t126 18.5q82 0 138 -15.5t99 -38.5l-49 -120q-37 16 -81 29.5t-99 13.5q-37 0 -64.5 -8.5t-47 -32t-31 -65.5t-11.5 -109v-70h467v72q0 88 30 153.5t78 107.5t112.5 62.5t134.5 20.5q119 0 188.5 -32t118.5 -71 l-80 -104q-37 29 -93.5 55.5t-131.5 26.5q-90 0 -141.5 -49.5t-51.5 -171.5v-70h246v-129h-244v-848h-168v848h-463v-848h-167v848h-150zM1370 0v977h166v-977h-166z" />
<glyph unicode="&#xfb04;" horiz-adv-x="1746" d="M43 848v129h154v72q0 94 22.5 159.5t62.5 106.5t96 59.5t126 18.5q82 0 138 -15.5t99 -38.5l-49 -120q-37 16 -81 29.5t-99 13.5q-37 0 -64.5 -8.5t-47 -32t-31 -65.5t-11.5 -109v-70h465v35q0 100 35 172.5t97.5 119t147.5 68t185 21.5q96 0 181 -18.5t128 -35.5v-1339 h-167v1235q-25 10 -67 16t-87 6q-59 0 -110.5 -11t-90.5 -38.5t-62.5 -77t-23.5 -124.5v-29h246v-129h-244v-848h-168v848h-463v-848h-167v848h-150z" />
</font>
</defs>
</svg>
